<svg xmlns="http://www.w3.org/2000/svg" width="640" height="480" viewBox="0 0 640 480"><path d="M231.5 126s-17-11.5-20.5-10.5-8.5 6.5-19.5 0-18-6.5-23.5-8-26-4.5-33-4.5l-11.5 1.5s-3.5-1-7-3-10.5-4-17-8.5-10-7.5-10.5-1.5 4.5 13.5 6.5 16.5l4.5 5s3.5 2-3.5 8-10.5 10-13.5 15.5-1.5 14-13.5 26.5-23 21-23 23.5 8 12 16 12.5 14.5-2.5 22-9 10-10.5 11.5-10.5-15 24-16 28.5 12.5 18 23 5.5 14-17.5 19-21 7-8.5 21 1 43.5 30 49.5 32 11.5 3.5 14 9.5 12 29 10.5 36-13 44.5-13.5 47.5-1 17-7.5 26.5-32.5 10.5-34.5 15-5.5 11 17.5 11 16.5-5 20.5-11 6-9 10-10.5 6-4 8-8.5 22-49.5 27.5-56 11.5-9 9-17-5.5-19-2-20.5 9 1 7 10.5-17.5 44.5 1.5 56.5 45 23 47.5 15.5-11-23.5-17-23.5-17-1.5-17-5 4-18 7-29.5l8-23.5s17 5.5 38-1.5 28-9.5 31.5-15.5 7.5-16 26-18 28-1 29 18.5 6 37 8 43.5 3 33.5-6.5 45.5-37.5 17-37 21.5 2.5 10 15 9.5l20-3.5s-1-4 1-8l26.5-35.5s4.5-.5 5-4.5-3-12.5-3-19.5l7.5-42 2.5-1.5s25 38 45.5 44.5 33 16.5 42 29l13 26.5s4 19 6.5 19 10 4 12.5-7.5l-6-19s-3.5-11-6.5-17.5-6.5-13.5-6.5-16.5-5.5-10.5-9.5-13-15-14.5-21-21.5-11-10.5-11-16.5 4-31.5 8.5-37 18.5-10.5 30 0 15.5 23.5 15.5 28.5 25.5 18 30.5-7.5-11.5-39-21-50l-21.5-21s-8-8.5-9.5-9.5l-7-1.5 4.5-4.5s-6.5 1-13-.5l-18-8 .5-4.5s-9 3.5-15 2-24.5-9-28.5-8.5-4.5 4-21.5 1-48-1-60.5.5-48.5 10.5-54.5 9.5-26-10.5-32-11l-12.5-.5s-5.5-1.5-9-1.5-3 3.5-13 2.5-22.5-2-26.5-2l-6.5 4.5z" fill-rule="evenodd" clip-rule="evenodd" fill="#221E1F"/></svg>