<svg xmlns="http://www.w3.org/2000/svg" width="640" height="480" viewBox="0 0 640 480"><path d="M-333 593" fill-rule="evenodd" clip-rule="evenodd" fill="#fff"/><path d="M324.966 111.968s2.128-56.634 45.754-56.634c43.627 0 84.061 8.512 137.263 8.512 53.203 0 57.46 5.32 57.46 5.32l.084 340.499s-27.133-25.449-97.356-25.449c-43.092 0-143.204 23.32-143.204 23.32v-295.568zm1.906 0s-2.128-56.634-45.753-56.634c-43.627 0-84.061 8.512-137.263 8.512-53.203 0-57.46 5.32-57.46 5.32l-.084 340.499s27.133-25.449 97.356-25.449c43.092 0 143.203 23.32 143.203 23.32v-295.568z" fill-rule="evenodd" clip-rule="evenodd" fill="#221E1F"/></svg>