<svg xmlns="http://www.w3.org/2000/svg" width="640" height="480" viewBox="0 0 640 480"><path d="M318 55.7v362.7l-.44.04-.45-.04v-362.7h.89zm103.913 111.8c0 41.3-25.35 63.89-35.74 87.46-10.39 23.58-12.17 29.16-12.17 42.09 0 12.931-12.42 21.04-12.42 21.04s2.03 19.271 0 23.07l-5.33 12.17s3.3 34.22-.5 39.04c-3.81 4.81-14.45 13.43-18 17.24-3.55 3.8-3.55 8.359-10.4 8.359-5.1 0-9.08.28-10.77.431v-362.7c76.34.54 105.33 70.66 105.33 111.8zm-103.913 250.9v.08l-.44-.04.44-.04zm-.44.04l-.45.04v-.08l.45.04zm-.45-362.74v362.7c-1.69-.15-5.67-.431-10.77-.431-6.85 0-6.85-4.56-10.4-8.359-3.54-3.811-14.19-12.431-17.99-17.24-3.81-4.82-.51-39.04-.51-39.04s-3.3-8.37-5.33-12.17c-2.02-3.8 0-23.07 0-23.07s-12.42-8.109-12.42-21.04c0-12.93-1.77-18.51-12.17-42.09-10.39-23.57-35.74-46.16-35.74-87.46 0-41.14 28.99-111.26 105.33-111.8z" fill="#221E1F"/><path d="M306.726 211.999c-39.389 0-39.846-27.311-39.846-27.586l4.491-.009c.009.943.597 23.102 35.354 23.102 8.212 0 14.747-1.808 18.899-5.229 4.238-3.49 5.127-7.792 5.127-10.786 0-7.067-5.325-14.942-12.967-14.942v-4.492c10.442 0 17.46 10.048 17.46 19.434 0 5.6-2.402 10.662-6.764 14.254-5.038 4.15-12.356 6.254-21.754 6.254zm22.355 0c-9.398 0-16.719-2.104-21.756-6.253-4.361-3.592-6.763-8.654-6.763-14.253 0-9.385 7.015-19.434 17.459-19.434v4.492c-7.642 0-12.968 7.875-12.968 14.942 0 2.994.889 7.295 5.125 10.786 4.154 3.421 10.689 5.229 18.901 5.229 34.755 0 35.347-22.159 35.354-23.102l4.493.009c.002.273-.455 27.584-39.845 27.584z" fill="#fff"/></svg>