<svg xmlns="http://www.w3.org/2000/svg" width="640" height="480" viewBox="0 0 640 480"><path d="M318.968 36.2h5.761c8.116 4.33 11.576 13.61 15.845 20.889 66.026 112.59 131.595 229.106 197.368 342.871v3.603c-1.448 13.765-27.974 10.085-48.982 10.085h-334.226c-18.625 0-46.374 3.646-48.982-8.645v-6.483c60.712-104.222 122.47-212.64 183.682-318.379 7.088-12.246 18.958-36.683 29.534-43.941zm2.16 35.296c-58.222 102.882-120.145 207.386-178.639 309.016-1.822 3.165-4.605 7.411-3.602 9.364h365.92c-59.036-105.438-121.751-213.435-183.679-318.38zm-13.686 186.561c-7.089 6.357-14.643 12.249-14.406 25.932h-67.71c1.124-42.574 20.95-66.447 47.541-83.555 12.648 18.085 22.476 38.991 34.575 57.623zm110.926 25.212c-21.136 1.675-45.375.245-67.71.72-.197-13.007-6.513-19.898-14.406-25.211 10.753-19.738 22.593-38.393 33.135-58.344 28.047 15.892 46.967 40.913 48.981 82.835zm-100.842-18.009c4.141-.828 7.617-1.034 10.803 0 14.928 4.844 17.578 31.107.72 36.737-14.687 4.905-27.237-5.229-26.649-19.449.444-10.727 5.095-15.279 15.126-17.288zm19.447 43.94c10.07 20.184 22.723 37.783 32.414 58.346-23.285 16.759-72.382 16.263-95.8 0 10.612-19.882 22.486-38.502 33.135-58.346 8.717 4.345 21.466 4.255 30.251 0z" fill-rule="evenodd" clip-rule="evenodd"/><path d="M537.942 403.562v10.805h-412.741c-3.708 0-17.844 1.636-19.449-1.441-.406-.778.307-5.57 0-7.923 2.608 12.291 30.357 8.645 48.982 8.645h334.226c21.009-.001 47.534 3.679 48.982-10.086z" fill-rule="evenodd" clip-rule="evenodd" fill="#fff"/></svg>