<svg xmlns="http://www.w3.org/2000/svg" width="640" height="480" viewBox="0 0 640 480"><path d="M595.275 392.126c0 9.394-7.614 17.008-17.008 17.008h-518.74c-9.393 0-17.008-7.614-17.008-17.008v-324.383c0-9.393 7.615-17.008 17.008-17.008h518.74c9.394 0 17.008 7.615 17.008 17.008v324.383zm-41.075-296.929c0-9.393-7.614-17.008-17.008-17.008h-436.387c-9.393 0-17.008 7.615-17.008 17.008v126.234c0 9.394 7.615 17.008 17.008 17.008h436.387c9.394 0 17.008-7.614 17.008-17.008v-126.234z" fill-rule="evenodd" clip-rule="evenodd" fill="#221E1F"/></svg>