<svg xmlns="http://www.w3.org/2000/svg" width="640" height="480" viewBox="0 0 640 480"><path d="M-118 122" fill-rule="evenodd" clip-rule="evenodd" fill="#221E1F"/><path d="M585.29 310.768c0 28.907-31.798 25.053-31.798 25.053h-101.175s-40.471-12.526-50.105-22.162c-9.637-9.636-23.126-26.98-36.616-26.98h-27.943l-12.526-20.075h-267.874c-20.234 0-27.943-19.271-27.943-36.618 0-17.344 16.381-32.92 27.943-32.92 11.563 0 12.526-.963 12.526-.963h254.382v-13.49s20.235-7.708 40.47-7.708 26.018-17.344 41.434-31.798c15.418-14.454 49.143-17.344 49.143-17.344h103.102l26.018 24.089s.962 132.008.962 160.916zm-30.033-57.173c3.017 0 5.462-2.445 5.462-5.463v-48.818c0-3.018-2.445-5.463-5.462-5.463h-40.145c-3.018 0-5.463 2.445-5.463 5.463v48.818c0 3.018 2.445 5.463 5.463 5.463h40.145z" fill-rule="evenodd" clip-rule="evenodd" fill="#221E1F"/></svg>