<svg xmlns="http://www.w3.org/2000/svg" width="640" height="480" viewBox="0 0 640 480"><path d="M517.272 80.165c0 30.414-8.689 280.237-8.689 280.237s0 30.413-14.12 30.413h-26.068v23.896s3.259 10.862-7.604 10.862h-140.119v-74.947h95.031c32.097 0 58.122-29.24 58.122-65.312v-135.492c0-36.072-26.025-65.312-58.122-65.312h-95.031v-31.5h175.963s20.637-3.258 20.637 27.155zm-196.6 270.462v74.947h-4.345v-74.947h4.345zm0-297.617v31.5h-4.345v-31.5h4.345zm-4.344 297.617v74.947h-140.119c-10.862 0-7.604-10.862-7.604-10.862v-23.896h-26.068l-14.121-30.413s-8.689-249.824-8.689-280.237c0-30.413 20.638-27.155 20.638-27.155h175.963v31.5h-95.031c-32.097 0-58.122 29.24-58.122 65.312v135.492c0 36.072 26.025 65.312 58.122 65.312h95.031z" fill="#221E1F"/></svg>