<svg xmlns="http://www.w3.org/2000/svg" width="640" height="480" viewBox="0 0 640 480"><path d="M469.164 92.411c39.198 36.186 63.677 87.578 63.677 144.589 0 109.585-90.455 198.425-202.033 198.425-111.578 0-202.033-88.84-202.033-198.425 0-9.263.649-18.381 1.894-27.311 6.801.153 19.238.307 33.651.307v.136c19.527 0 42.707-.163 60.42-7.559 14.503-6.052 25.371-16.505 36.88-27.581 17.939-17.263 36.492-35.121 71.533-38.016 14.367-1.191 27.607-.424 40.424.307 7.315.424 14.449.83 21.403.83 28.429-.001 51.419-4.899 74.184-45.702zm-55.378 143.687c0-39.351-34.725-71.252-77.566-71.252s-77.566 31.901-77.566 71.252c0 39.352 34.725 71.253 77.566 71.253s77.566-31.902 77.566-71.253zm48.542-149.721c-25.291 44.312-51.997 42.779-88.164 40.695-13.159-.758-26.77-1.533-41.85-.289-38.666 3.193-59.456 23.198-77.792 40.839-10.787 10.39-20.988 20.203-33.714 25.516-27.96 11.662-72.813 8.451-88.524 6.854 17.65-91.897 99.826-161.418 198.524-161.418 50.238.001 96.182 18.003 131.52 47.803z" fill="#221E1F"/></svg>