<svg version="1.2" baseProfile="tiny" xmlns="http://www.w3.org/2000/svg" width="640" height="480" viewBox="-217.2 -87.1 640 480"><path fill="#C4C4C4" d="M4.9 32.6c.6 2.2 2.6 3.3 5.9 3.3 2.3 0 5.1-1.9 8.6-5.7 3.4-3.8 8.1-7.9 13.9-12.2 5.9-4.3 13.3-8.4 22.3-12.2 9-3.8 20-5.7 33-5.7 8.8 0 17.4 1.3 25.9 3.8 8.5 2.6 16.1 6.5 22.8 12 6.7 5.4 12.1 12.5 16.2 21.2s6.1 19.4 6.1 32c0 14.1-3 26.3-9.1 36.4-6 10.1-12.7 19.5-20.1 28-7.3 8.5-14.1 16.7-20.3 24.7-6.2 8-9.3 16.7-9.3 26.1 0 4 .8 7.6 2.4 10.9 1.6 3.3 4.6 4.9 8.8 4.9v6.5h-52.3v-6.5c2.6 0 4.7-.8 6.4-2.4 1.6-1.6 2.5-5.7 2.5-12.2 0-12.7 2.9-24.1 8.8-34.2 5.9-10.1 12.2-19.6 19.1-28.5 6.8-8.9 13.2-17.7 19.1-26.3 5.9-8.7 8.8-17.9 8.8-27.7 0-10.5-2.7-18.9-8.1-25.2-5.4-6.3-15.4-9.5-30.1-9.5-5.2 0-10.8.9-16.6 2.7-5.9 1.8-11.2 4.3-15.9 7.3-4.7 3.1-8.6 6.7-11.7 10.9-3.1 4.2-4.7 8.6-4.7 13.3 0 4.7 1.1 7.6 3.4 8.7l-6.4 5-34.3-45.6 4.9-3.8zm56.8 231.4c0-7.6 2.4-14 7.1-19.3 4.7-5.2 10.5-7.9 17.4-7.9 6.8 0 12.6 2.6 17.4 7.9 4.7 5.2 7.1 11.7 7.1 19.3 0 7.6-2.4 13.8-7.1 18.5-4.7 4.7-10.5 7.1-17.4 7.1-6.9 0-12.7-2.3-17.4-7.1-4.8-4.8-7.1-11-7.1-18.5z"/></svg>