<svg xmlns="http://www.w3.org/2000/svg" width="640" height="480" viewBox="0 0 640 480"><path d="M91.447 401.454s-46.498 25.498-46.498-62.997l1.5-227.988s-6-13.5 40.498-13.5 94.495 3 116.994 3 10.5-15 44.998-15h62.997l3-17.999h9c0 .001-.936-10.97 13.064-10.97l9 3v7h61v-8h17l4 6h7l6 15h127l4 6s20-2 20 17v273s6 29-38 29h-458m285-278.473c-66.535 0-120.473 53.938-120.473 120.473s53.938 120.473 120.473 120.473 120.473-53.938 120.473-120.473-53.938-120.473-120.473-120.473zm108 121.639c0 59.095-47.905 107-107 107s-107-47.905-107-107c0-59.096 47.905-107.001 107-107.001s107 47.905 107 107.001zm-107-63.78c-35.225 0-63.779 28.555-63.779 63.78s28.555 63.779 63.779 63.779 63.779-28.555 63.779-63.779c0-35.226-28.554-63.78-63.779-63.78z" fill-rule="evenodd" clip-rule="evenodd" fill="#221E1F"/></svg>