<svg xmlns="http://www.w3.org/2000/svg" width="640" height="480" viewBox="0 0 640 480"><path d="M450.779 390.388c0 10.353-10.353 18.746-23.124 18.746h-217.515c-12.771 0-23.124-8.394-23.124-18.746v-321.309c0-10.354 10.353-18.746 23.124-18.746h217.516c12.771 0 23.124 8.393 23.124 18.746v321.309zm-210.459-261.895c-.213.261-2.041 1.736-2.589 2.112-1.462.983-2.771 1.504-3.259 1.678.305.376 1.462 1.707 2.375 1.707.457 0 .944-.318 1.401-.694l1.645-1.36c.335-.26 1.462-1.533 1.523-1.62.183-.029.213-.029.609-.029l2.375-.058h3.381l.03.376v3.124l-6.548.087-.335-.173c-.092-.058-.305-.145-.487-.145-.305 0-.823.231-.823.694 0 .261.152 1.071.183 1.187.091.55.122 1.331.122 1.996v2.69c-.426.058-2.467.174-2.924.29-1.218.289-2.132 1.012-2.132 1.591 0 .347.274.694.944.694.152 0 .335-.029.457-.058l2.65-.607 1.918-.26 3.198-.174 3.776.058.031 1.707.061 2.517c0 .492.183 1.938.944 1.938.731 0 .944-1.302.975-1.88l.122-4.34 1.614.029 2.741.145 2.559.289.457.058 2.559.579c.061.029 1.431.231 2.437-2.72-.274.029-1.675.231-1.98.231-1.096.058-1.857.058-2.741 0l-2.071-.116-5.36-.173-.274-.029v-.289l.03-4.195.061-.058h2.132l4.843-.029c.213 0 1.005-.174 1.005-.723 0-.666-.853-.781-1.34-.781l-6.67-.029v-3.414l.122-.087h7.218c.244 0 .64-.116.761-.203.183-.086.274-.231.274-.492 0-.752-.944-.81-1.158-.81l-3.198-.058h-10.812l-.305-.029c.274-.405.883-1.389 1.036-1.678.457-.868.548-1.186.548-1.476 0-.318-.305-.694-.731-.694-.305 0-.366.087-.944.839-.152.203-1.036 1.331-1.097 1.389l-1.339 1.476zm1.644 11.457v-.231l-.03-3.79.03-.521.609-.029h5.269l-.061 4.484-2.01.029-3.807.058zm36.305-7.811c.244.289.244.289.548.723.213.29.944 1.273 1.827 1.273.518 0 1.492-.376 1.949-.607l2.284-1.157.457-.261 3.533-2.256 2.62-1.823.457-.289c.914.376 1.401.607 2.315 1.128l3.259 1.91 5.695 3.848c.091.058.335.058.487.058 2.162 0 3.045-1.649 3.35-2.314-.183-.029-1.157-.116-1.401-.145-.853-.231-2.802-.926-3.167-1.071l-2.254-.983-4.233-2.373-.183-.145-2.437-1.417c.03-.723-.305-1.215-.944-1.215-.274 0-.548.145-.731.29-.122.058-1.645 1.331-1.919 1.504l-1.827 1.302-1.584.983-2.071 1.157c-.366.203-2.193.984-3.411 1.273l-2.102.521-.517.086zm13.278 11.601c-.183.087-.183.087-.396.087h-.853l-3.898.086h-.853c-.761 0-2.071-.029-2.802.29-.701.29-1.005.723-1.005 1.042 0 .492.67.723 1.218.666l2.65-.29 3.106-.202 4.264-.058 4.081.058 2.68.173 2.68.347c1.157 0 1.492-1.736 1.614-2.372-.518.115-2.284.318-2.802.318l-7.584-.116-.03-.492.03-4.802.091-.116 6.366.029c.274 0 1.157-.116 1.157-.666 0-.666-.609-.81-2.894-.839l-4.721-.087.03-2.17c.152-.029 1.188-.029 1.371-.029h4.264c.579 0 .822-.347.822-.694 0-.26 0-.781-2.041-.781h-3.381l-3.533.029c-1.493 0-2.193 0-2.345-.029l-1.858-.116c-.365 0-2.102.26-2.102 1.128 0 .376.426.694.883.666l2.558-.116 3.229-.087.061.116v2.141c-.091.058-.975.058-1.218.058l-3.807.029c-.152.029-.914-.116-1.066-.116-.426 0-1.888.347-1.888 1.187 0 .463.609.665 1.005.636l3.959-.26h2.528c.183 0 .274.029.487.087v2.401l-.057 2.864zm-7.857-3.414c.243.376.243.376.457.81.366.781 1.066 1.418 1.462 1.418.701 0 2.771-2.054 2.771-2.835 0-.173-.213-.376-.457-.376-.335 0-1.828.607-2.193.666-.365.086-.457.086-2.04.317zm17.786-.289c-.457-.029-1.645-.116-1.949-.173l-2.223-.579c-.274 0-.518.231-.518.434 0 .492 1.979 2.633 3.045 2.633.762-.001 1.615-1.418 1.645-2.315zm34.69-11.486l-.03 3.356-4.111.029-3.838-.058c-.609 0-1.979.434-1.979 1.157 0 .752.944.666 2.041.608l2.284-.145 1.248-.086 4.355-.058v3.559c-1.432.029-2.894.058-4.325.116-.426.029-3.685.029-4.354.029-1.493 0-2.193.116-2.803.376-.761.348-1.096.868-1.096 1.215s.396.694.975.694c.03 0 2.345-.29 2.771-.347l2.589-.289 2.558-.145 3.716-.029.03 4.6c0 1.446-1.462 1.446-2.253 1.446-.549 0-1.097-.086-2.163-.231.122.29.67 1.707.822 1.997.062.115.457.926 1.279.926 1.066 0 2.833-.434 3.776-1.273.305-.26.823-.839.823-2.112l-.031-5.294.914-.029 3.229.145 3.046.318.73.116 1.797.376c.427.087.762.145 1.005.145.122 0 1.523-.26 2.011-2.806-.944.173-2.559.289-3.381.289l-3.259-.029-1.675-.087-4.508-.145v-3.5c1.248-.087 1.37-.087 1.522-.087l7.005.058c.731 0 .944-.26.944-.723 0-.347 0-.723-2.832-.723l-6.609-.029.03-3.529 2.954-.26 2.711-.318 2.254-.434c.518-.087.944-.347.944-.839 0-.579-.518-.607-.67-.607-.305 0-1.797.347-2.133.376l-2.527.318-3.016.26-3.076.116-3.594.087-2.284-.087-3.35-.289c.853 1.88 1.37 2.112 2.405 2.083l7.129-.207zm36.853 1.331l-2.314.116c-.062 0-.305-.231-.366-.26-.243-.145-.487-.174-.608-.174-.67 0-.64.579-.609 1.476l.122 2.604v2.256l-.062 5.353c0 .347.244.607.579.607.457 0 1.157 0 1.188-5.034l.03-5.555.062-.058c.243-.029 1.888-.058 2.01-.029l.061 12.325.031 2.459c0 .231.121 1.186.578 1.186.701 0 1.005-.665 1.005-3.79l.031-12.18c.121-.058 1.005-.058 1.157-.058.396 0 .67.058.913.116v5.323l.122 3.848c0 .318.152 1.417.64 1.417.883 0 .914-1.591.914-2.112v-6.162l.121-2.43.122-.926c0-.405-.335-.723-.73-.723-.183 0-1.006.405-1.219.405l-1.827-.058-.152-.058.03-3.298c0-.434-.091-1.389-.883-1.389-.305 0-.914.289-.914.868l.03 3.848-.062.087zm9.959 10.183c.03-.55-.03-1.996-.061-3.009h.061l2.437-.058 7.675-.087c.914 0 1.249-.145 1.249-.55 0-.434 0-.723-3.289-.694l-8.132.058.061-2.112 3.96-.058 4.751-.058c.396 0 .792-.202.792-.578 0-.579-1.036-.666-1.097-.666l-7.554.029h-.853v-1.967l8.649-.029c.184 0 .854-.058.854-.55s-.609-.752-1.188-.752l-6.426.086h-1.889l-.03-.145-.03-1.562v-.174l2.832-.087 3.198-.029h2.924c.396 0 1.066-.058 1.066-.666 0-.665-1.249-.665-2.741-.636l-7.036.086c-.426 0-.548 0-.792-.029l-.7-.289c-.152 0-.73.086-.73.81 0 .029.243 2.575.243 3.066v6.278l-.061.086c-1.066.058-2.314.145-2.314.955 0 .376.396.666.761.637l1.584-.145v4.918c0 1.187-.183 2.314-.335 2.69-.092.203-.67 1.1-.67 1.331 0 .405.426.955.853.955.122 0 1.279-.579 1.554-.636.518-.116 1.462-.261 1.675-.29l2.345-.086c.822-.029 1.157-.839 1.249-2.025l-1.584.405-3.441.405.18-4.828zm4.447-.896c-.487.289-2.437 1.099-3.808 1.389.122.145.67.868.853.983.214.174.579.376.822.376.184 0 .671-.202.914-.318.244-.115 1.401-.781 1.675-.926.335.203.884.637 1.127.868l1.767 1.765.731.81 1.614 1.967c.091.116.273.145.426.145 1.736 0 2.681-1.244 2.985-1.649-1.949-.636-2.924-1.099-3.96-1.996l-3.197-2.719c1.4-.984 2.01-1.476 2.01-1.852 0-.231-.244-.463-.67-.463-.457 0-.853.202-.884.231l-2.405 1.389z" fill-rule="evenodd" clip-rule="evenodd"/></svg>