<svg xmlns="http://www.w3.org/2000/svg" width="640" height="480" viewBox="0 0 640 480"><path d="M306.751 173.559h15.36c17.9 1.702 38.205.051 53.04 3.36 7.081-1.332 14.396.696 21.84 1.44 8.67.867 16.481 2.278 24.24 3.12 3.222.35 6.388.524 9.12 1.92 2.852-.43 5.001.578 7.68.96.206.766-.378.743-.48 1.2.661-.296 1.32-.726 1.44.24 1.01.37.038-1.242.72-1.2 2.069-.275 3.582 1.39 5.521 1.68.886.132 1.955-.197 2.88 0 .864.184 1.59.939 2.4 1.2 1.542.497 3.709.725 5.52 1.2 2.63.69 4.497 1.638 7.44 1.68 1.059.461 1.207 1.833 2.399 2.16.66-.215-.559-.974.72-.72 3.503 2.018 8.575 2.465 11.28 5.28 3.961.6 6.869 2.251 9.36 4.32 7.461 3.091 14.423 7.228 21.12 11.28 3.288 1.99 6.652 4.042 9.84 6.24 3.928 2.708 8.958 5.18 12 8.4 3.689 1.924 6.979 4.189 10.32 6.48 3.422 2.346 6.167 5.237 9.359 7.68 2.531 1.937 5.219 3.263 7.44 5.28 6.753 6.133 11.763 13.76 18.479 19.92 7.454 3.664 12.831 10.421 12.96 20.64v1.92c-.737 3.908-6.231 5.792-11.52 6.48-.444.058-1.215-.355-1.681-.24-1.699.42-2.85 2.256-5.279 1.2-1.372 1.404-3.417.979-6.24 1.439-2.749.449-5.53 2.58-7.92 1.2-2.302 1.546-4.754 1.102-7.2 1.681-1.343.317-2.306 1.11-3.12 1.199-3.437.377-6.332 4.566-10.08 3.841-1.137 2.808-5.719 2.635-9.359 3.6-.946.251-1.621 1.046-2.4 1.2-2.192.435-4.325-.463-6.48-.48-2.215-.018-4.339 1.133-6.479 1.2-1.387.044-2.933-.534-4.32-.48-.649.026-1.055.504-1.68.48-2.873-.107-5.312-.893-9.12-.72-5.411.245-10.487-1.057-15.84-1.44-4.148-.297-8.48.234-12-1.92-1.189.21-2.132.621-3.84.48-1.834-.151-3.582-1.498-5.76-1.681-.942-.078-1.925.353-2.881.24-1.116-.132-2.143-1.229-3.359-1.44-1.141-.197-2.326.412-3.36.24l-3.12-1.439c-2.611-.498-4.577.431-5.76-1.681-.516.445-1.758.162-2.64.24-6.1-3.021-14.089-4.151-18.721-8.64-4.45-.189-5.986-3.294-8.88-5.04-3.535-.523-5.594.673-7.439 2.399.145 1.375 1.264 1.776 2.399 2.16 2.933 4.419 6.715 8.219 10.08 12.24 9.992 11.941 20.187 24.045 32.4 34.08 1.229 4.77 4.427 7.572 6 12-9.761 1.823-12.955-4.952-20.16-6.48-.627-.492-.654-1.586-2.16-1.199-1.259-.901-1.874-2.446-4.08-2.4-.914 3.616.458 9.816-.239 15.12-1.382 1.179-3.473 1.647-6.24 1.439-2.04-4.76-5.137-8.463-8.641-11.76-3.251 3.389-5.242 8.038-8.64 11.28-4.583-1.777-3.965-11.253-1.2-14.64-.376-1.504.772-2.738.24-3.601.406-.713 1.111-1.129 1.2-2.16-3.149-6.37-5.434-13.606-9.601-18.96l.24-1.439c-4.403-6.558-11.239-10.682-15.84-17.04-3.305-.869-4.388-5.061-7.68-5.76-3.269-.695-7.294 1.311-11.521 1.68-1.635.143-3.554-.21-5.04 0-.916.129-1.715.753-2.64.96-3.068.688-6.315.118-9.36.479-3.739.445-7.277 2.288-10.319.721-5.288 1.484-13.345 2.157-18.48 1.68-10.359 1.875-23.404 2.142-35.04 1.2-2.028-.164-4.245-1.268-6.24-1.2-2.767.094-8.188.591-10.56-1.2-2.955.32-5.902.072-8.16-1.2-5.417.106-9.735-2.664-15.36-3.119-1.489 10.546 1.213 18.431-.24 26.88-.775 4.506-3.848 8.502-6.48 11.76-2.761 3.418-6.442 6.893-7.2 10.8-.139.716.193 1.51 0 2.16-.213.715-1.166 1.297-1.44 2.16-.477 1.499.074 3.331-1.44 4.08.049 4.608-2.8 6.319-6 7.68h-.72c-2.122-.922-1.297-4.457-.72-6-1.036-3.044-.221-7.939-.48-11.76-1.862-2.073-5.79.109-8.16-.48.432-8.608 10.092-7.988 13.68-13.439-.129-1.918.42-3.877-.24-6.24-.241-.863-1.021-1.448-1.2-2.4-.312-1.66.532-3.593.24-5.279-.331-1.907-3.244-4.699-1.2-7.44-1.167-2.068-2.22-6.691-1.68-8.88-4.948-3.771-8.555-8.885-14.4-11.76-2.344.847-3.878-1.019-5.28-1.44-.764-.229-1.795.184-2.64 0-.965-.21-1.807-1.251-2.64-1.439-.801-.182-1.964.16-2.88 0-2.067-.363-4.306-2.304-7.44-1.2-.961.338-1.507 1.335-2.4 1.92-4.215 7.705-8.803 15.037-14.64 21.12-.97 3.917-3.525 7.234-4.08 10.8-1.671.569-.441 4.039-2.88 3.84-.933-2.507-1.346-5.534-2.16-8.16-1.718.763-2.696 2.264-4.32 3.12-5.735.566-9.835 5.121-15.6 4.08-1.367-4.018 2.442-6.762 4.8-9.12 4.974-4.973 10.449-9.024 15.84-13.92 2.691-2.443 5.822-4.775 7.2-7.439 1.001-1.936 1.954-4.847 3.12-6.48.837-1.173 2.419-1.727 2.4-3.12-.036-2.636-5.916-4.194-7.92-5.28-1.081-.585-1.903-1.244-2.88-1.68-2.242.787-6.666 1.167-9.12.24-5.348.783-12.008.577-16.32-.96-4.298-.021-9.02.379-11.52-1.44-3.114.913-5.497-.97-7.92-1.439-2.27-.44-4.454.33-5.52-1.44-3.977.057-6.6-1.24-8.88-2.88-4.421.182-6.247-2.232-9.84-2.88-1.226-.294-1.36-1.68-3.36-1.2-.551-.409-1.031-.889-1.44-1.439-2.542.381-2.621-1.7-4.8-1.681-2.233-1.595-5.813-2.665-8.88-4.8-4.541-3.161-10.184-4.009-9.6-11.52-2.404-1.595-2.78-5.22-3.36-8.64v-2.64c.909-.691.306-2.895.48-4.32 5.9-6.949 14.646-12.059 23.52-16.08 2.688-1.218 6.137-2.625 8.4-3.84.492-.264.905-.252 1.44-.48 3.454-1.473 6.8-3.122 10.32-4.56.396-.162 1.179-.559 1.68-.72.84-.271 1.644.05 2.4-.24.434-.167.791-.96 1.2-1.2 1.396-.818 3.216-1.195 5.04-1.2 3.855-3.025 10.737-3.023 14.64-6h2.88c.6-.684 1.065-1.114 1.92-1.44 1.738-.664 3.759-.992 5.76-1.68 1.977-.68 4.195-1.184 6.48-1.2 2.318-1.767 6.598-1.979 10.32-2.64 2.848-.505 5.776-1.004 8.64-1.44 6.061-.922 12.38-.586 18.72-1.2 6.542-.633 13.754-1.947 20.88-1.68 3.205.12 7.1.342 10.8.48 3.782.142 8.071.704 10.8 0 1.867-.48 3.64-2.342 5.76-2.88 3.944-1 8.122.412 12.24-.24 1.115-.177 1.627-.926 2.64-1.2 6.92.953 16.061-1.619 21.6.72.562-1.079 2.733-.977 3.84-.96 5.342.079 10.772.394 14.64-.24.551-.09.854.271 1.44.24 8.696-.47 15.519-.042 23.282-1.204zm-217.44 58.08c8.257-.275 8.066-14.542-1.44-12.96-8.347 1.389-6.045 13.209 1.44 12.96z" fill-rule="evenodd" clip-rule="evenodd"/><path d="M87.871 218.679c9.506-1.583 9.697 12.685 1.44 12.96-7.485.249-9.787-11.571-1.44-12.96z" fill-rule="evenodd" clip-rule="evenodd" fill="#fff"/></svg>