<svg xmlns="http://www.w3.org/2000/svg" width="640" height="480" viewBox="0 0 640 480"><path d="M307.39 149.79v.96c-.62-.02-1.24-.03-1.87-.03l-.58.01.01-.25v-.69h2.44zm7.84 162.79l-.46.62c-2.1.24-4.22.39-6.37.45v-1.07h6.83zm-11 0v1.11c-1.68-.011-3.35-.091-5.01-.221v-.89h5.01zm0-8.57v2.59c-2.19-.029-4.36-.149-6.5-.369.46-.69.9-1.431 1.33-2.221h5.17zm-15.97 7.93l1.05 1.22c-38.44-7.391-67.79-40.601-69.26-80.81l1.04 1.23c2.01 38.74 30.2 70.66 67.17 78.36zm5.42-5.22c-.8 2.08-1.69 4.04-2.61 5.75-.41-.069-.82-.14-1.23-.22l-6.78-7.91c3.45 1.04 6.99 1.84 10.62 2.38zm10.55.88v4.521h-4.29c-1.21-.46-2.54-.88-4.75-1.53v2.49c-.98-.12-1.95-.25-2.91-.41 1.43-1.29 3.14-3.08 4.83-5.5 2.34.249 4.72.399 7.12.429zm15.73-1.32l-3.65 4.859c-.98-1.09-2.47-2.54-2.64-2.54-.13 0-.23.19-.39.46l-1.96 3.061h-2.92v-4.561c3.94-.139 7.8-.569 11.56-1.279zm6.71-8.95l-5.82 7.76c-4.05.82-8.21 1.32-12.45 1.47v-2.55h9.79c.23 0 .42 0 .42-.27 0-.38-3.45-3.75-3.71-3.75l-.01-.07c4.04-.53 7.98-1.41 11.78-2.59zm-11.78 2.59l.01.07c-.13 0-.29.31-.39.46l-1.85 3.1h-13.37c.69-1.33 1.07-2.24 1.42-3.189 1.59.12 3.19.17 4.81.17 3.18-.001 6.3-.211 9.37-.611zm-18.92-.03c-.55 1.971-1.2 3.971-1.92 5.88-4.19-.619-8.27-1.579-12.21-2.859l-8.73-10.17c7.03 3.599 14.73 6.059 22.86 7.149zm38.97-13.58l-7.221 9.631c-6.979 2.329-14.44 3.59-22.2 3.59-1.31 0-2.62-.04-3.92-.11-1.7-.5-3.58-.96-5.14-1.34-.07.28-.14.55-.22.83-8.94-1.17-17.36-4.04-24.92-8.26l-15.69-18.311 1.31-1.13c11.79 13.61 29.19 22.24 48.58 22.24 10.591 0 20.601-2.58 29.421-7.14zm-66.26 2.78l2.01 2.351c-14.66-8.23-26.14-21.49-32.07-37.421l2 2.33c5.72 13.62 15.61 25.07 28.06 32.74zm11.32 13.21l1.27 1.48c-27.57-8.98-48.49-32.84-53.2-62.061l1.26 1.471c5.06 27.55 24.74 50.04 50.67 59.11zm-39.38-45.95l28.06 32.74c-12.45-7.67-22.34-19.12-28.06-32.74zm30.07 35.09l9.31 10.86c-25.93-9.069-45.61-31.56-50.67-59.109l9.29 10.829c5.93 15.93 17.41 29.19 32.07 37.42zm10.58 12.34l6.99 8.16c-36.97-7.7-65.16-39.62-67.17-78.36l6.98 8.14c4.71 29.22 25.63 53.08 53.2 62.06zm13.92 16.42v1.01c-46.24-5.15-82.3-44.46-82.3-92.04 0-1.68.05-3.35.14-5.01l.95 1.12c-.06 1.29-.09 2.59-.09 3.89 0 47.03 35.62 85.89 81.3 91.03zm0-.18v.181c-45.68-5.141-81.3-44-81.3-91.03 0-1.3.03-2.6.09-3.89l6.07 7.07c1.47 40.209 30.82 73.419 69.26 80.81l.82.96-.28.45.07.04.38-.29 4.89 5.699zm0-5.94v4.41l-4.11-4.79.22-.181c1.29.221 2.58.411 3.89.561zm9.04 8.49v4.67l-.72.96-4.83-5.63zm0-7.88v6.079c-1.68-.01-3.35-.079-5.01-.199v-6.09c1.65.12 3.32.2 5.01.21zm9.71-.39l-4.81 6.41c-.24.021-.48.03-.73.03v-6.08c1.86-.06 3.71-.18 5.54-.36zm75.94-99.26c.78 4.6 1.18 9.32 1.18 14.13 0 43.74-32.989 79.91-75.39 84.93l.83-1.1c41.44-5.4 73.56-40.93 73.56-83.83 0-4.43-.34-8.78-1.01-13.03l.83-1.1zm5.68-7.58c1.69 6.97 2.58 14.24 2.58 21.71 0 46.68-34.71 85.4-79.669 91.71-.26-.29-.55-.6-.83-.899 44.81-5.94 79.5-44.4 79.5-90.811 0-7.11-.81-14.03-2.35-20.68l.769-1.03zm-.77 1.03c1.54 6.65 2.35 13.57 2.35 20.68 0 46.41-34.689 84.87-79.5 90.811-.79-.82-1.56-1.54-1.7-1.54-.16 0-.29.229-.42.46l-.92 1.439c-1.26.13-2.54.23-3.82.29l4.89-6.53c42.4-5.02 75.39-41.189 75.39-84.93 0-4.81-.399-9.53-1.18-14.13l4.91-6.55zm-5.74 7.65c.67 4.25 1.01 8.6 1.01 13.03 0 42.9-32.119 78.43-73.56 83.83l.32-.42c.22 0 .39-.01.39-.271l-.07-.159 4.669-6.24c35.471-7.51 62.16-39.061 62.16-76.74 0-2-.08-3.98-.22-5.94l5.301-7.09zm-5.3 7.09c.14 1.96.22 3.94.22 5.94 0 37.68-26.689 69.23-62.16 76.74l.921-1.22c34.449-7.841 60.239-38.721 60.239-75.521 0-1.58-.05-3.15-.149-4.71l.929-1.229zm-.93 1.23c.1 1.56.149 3.13.149 4.71 0 36.8-25.79 67.68-60.239 75.521l6.02-8.04c26.98-9.311 46.68-34.381 48.05-64.15l6.02-8.041zm-7.11 9.49l1.09-1.45c-1.37 29.77-21.069 54.84-48.05 64.15l1.09-1.46c25.42-9.38 43.98-33.07 45.87-61.24zm-7.7 10.29l7.7-10.29c-1.89 28.17-20.45 51.859-45.87 61.24l7.73-10.32c15.05-8.69 26.27-23.3 30.44-40.63zm-1.59 2.11l1.59-2.109c-4.17 17.33-15.39 31.939-30.439 40.63l1.609-2.15c13.09-8.241 22.95-21.151 27.24-36.371zm-27.24 36.37l27.24-36.37c-4.29 15.22-14.15 28.13-27.24 36.37zm-42.18-130.53l-1 1.62h-1.4c-.68-.29-1.72-.63-2.61-.91 1.65-.29 3.32-.53 5.01-.71zm78.88 76.98c0 .89-.02 1.78-.05 2.66l-7.21 9.6c.78-3.97 1.18-8.07 1.18-12.26 0-31.07-22.16-57.06-51.5-63h.99c.2 0 .43 0 .43-.27 0-.34-3.35-3.52-3.45-3.52-.13 0-.29.27-.39.46l-1.6 2.65c-1.01-.14-2.02-.26-3.05-.34v-5.03h6.01c.19 0 .41 0 .43-.26 33.03 5.77 58.21 34.65 58.21 69.31zm-79.65-69.74v2.95h-1.76v-2.7c.58-.1 1.17-.18 1.76-.25zm11.16.69v4.8c-.62-.02-1.25-.03-1.87-.03-3.77 0-7.46.33-11.05.96v-3.01h1.76v1.69c0 .76.1.76.65.72l2.47-.19c.62-.04.62-.23.62-.76v-5.27c1.83-.15 3.68-.22 5.55-.22.63 0 1.25.01 1.87.02v.84h-5.99l.13.45h5.86zm-11.16-5.89v4.18c-.59.08-1.17.16-1.76.25v-4.43h1.76zm144.54-133.72v419.52h-283.44v-419.52h283.44zm-7.52 136.46l.5-.67-.8-.6-.67.89-124.26-48.92-148.83 52.15-.13-.15-.37.33-.38.33 54.72 63.83c-.09 1.66-.14 3.33-.14 5.01 0 47.58 36.06 86.89 82.3 92.04v.94h-5.53l.16.42h7.56l5.52 6.439-31.28 41.69.8.6 31.15-41.51.66.78v2.22c0 .76.16.84.72.8l2.76-.229c.56-.04.69-.15.69-.99v-8.561l.93-1.239h9.83c.2 0 .43 0 .43-.271 0-.13-.49-.729-1.12-1.42 44.959-6.31 79.669-45.03 79.669-91.71 0-7.47-.89-14.74-2.58-21.71l37.79-50.45-.099-.039zm-.97-.38l-37.07 49.41c-9.57-37.01-41.5-65.12-80.45-68.99h4.31c.19 0 .39 0 .39-.27 0-.34-2.7-2.94-2.8-2.94-.13 0-.26.19-.42.45l-1.4 2.3h-.88v-3.14c.88-.38.97-.42.97-.61s-.19-.23-.61-.27c-2.54-.3-2.83-.34-4.17-.46v4.48h-2.44v-3.06c.26-.08.98-.27.98-.54 0-.19-.33-.23-.52-.26-.85-.16-3.19-.5-4.13-.58v4.44h-4.49l.07.19c-.68.04-1.36.09-2.04.15-45.26 3.86-81.33 40.39-84.46 85.85l-53.93-62.92 148.83-52.15 124.26 48.92zm-132.34-21.03c.19 0 .39 0 .39-.31s-3.16-3.06-3.32-3.06c-.13 0-.26.27-.39.46l-1.6 2.45h-4.48l.16.46h9.24zm94.49 71.47l-4.819 6.43c-6.67-35.78-35.7-63.81-71.98-68.97v-.02c.69-.38 1.21-.65 1.21-.99 0-.5-3.32-3.56-3.65-3.56-.09 0-.22.19-.42.5l-.44.68-.45-.29c.08-.13.08-.33.08-.62v-2.25c39.119 3.59 71.209 31.88 80.469 69.09zm-5.64 7.52l-5.2 6.93c-3.53-36.23-31.81-65.3-67.67-70.07l-.14-.09-.12.05c-1.47-.19-2.94-.34-4.43-.44v-1.14h2.53c0 1.11 0 1.3.65 1.27l2.57-.2c.65-.03.65-.34.65-.91v-4.45c36.1 5.2 64.91 33.3 71.16 69.05zm-6.1 8.13l-5.82 7.76c.01-.42.01-.85.01-1.27 0-35.52-26.08-65.06-60.1-70.47-.81-.84-1.89-1.83-2.01-1.83-.13 0-.26.19-.39.46l-.55.96c-.86-.1-1.73-.18-2.6-.25v-3.5h7.02c.2 0 .43 0 .43-.27 0-.18-.73-.96-1.46-1.67 35.07 5.34 62.5 34.29 65.47 70.08zm-13.89 6.49c0 4.86-.55 9.59-1.59 14.14l-30.82 41.08c-9.14 5.13-19.669 8.061-30.87 8.061-34.9 0-63.28-28.391-63.28-63.28 0-29.84 20.76-54.93 48.61-61.56.09.04.22.03.4.02l2.6-.2c.51-.02.6-.21.61-.57 1.69-.3 3.4-.53 5.13-.69h11.86c32.12 2.999 57.35 30.109 57.35 62.999zm-6.09 0c0-31.53-25.66-57.19-57.19-57.19-31.54 0-57.2 25.66-57.2 57.19 0 31.54 25.66 57.19 57.2 57.19 31.53 0 57.19-25.65 57.19-57.19zm-57.19-56.19c30.98 0 56.19 25.21 56.19 56.19 0 30.99-25.21 56.19-56.19 56.19-30.99 0-56.2-25.2-56.2-56.19 0-30.98 25.21-56.19 56.2-56.19zm50.1 56.19c0-27.63-22.47-50.11-50.1-50.11-27.63 0-50.11 22.48-50.11 50.11s22.48 50.1 50.11 50.1 50.1-22.47 50.1-50.1zm-50.1-49.11c27.07 0 49.1 22.03 49.1 49.11 0 23.42-16.48 43.061-38.45 47.93l-.1-.439c.52-.09.52-.26.52-.93v-19.94h2.74c.19 0 .42 0 .42-.3 0-.351-3.45-3.641-3.55-3.641-.13 0-.29.311-.49.58l-1.85 2.9h-3.22v-8.64c3.55-.2 7.16-.73 8.43-.921.13.04.35.11.52.11.13 0 .26-.07.26-.27 0-.301-3.19-3.71-3.68-4.21-1.98 2.109-4.94 3.909-5.72 4.369-.53-.119-3.1-.729-3.68-.84v2.141h-.2c0-.311-2.24-3.221-2.53-3.221-.1 0-.2.12-.39.46l-1.53 2.61h-2.18v-3.95c.39-.149.88-.38.88-.649 0-.19-.26-.271-.4-.301-1.23-.229-3.41-.5-4.29-.579v5.479h-5.92l.16.42h1.86l.05.09c1.19 2.221 1.54 5.431 1.64 6.41.13 1.19.13 1.34.45 1.49h-5.07l.16.46h6.67v5.55h-6.41l.16.42h5.44c-1.63 5.4-4.23 10.07-6.31 12.36l.09.08c1.57-.76 4.49-2.41 7.03-6.24v8.19c0 .479.05.68.23.76l-.09.479c-22.67-4.33-39.86-24.3-39.86-48.22 0-27.077 22.03-49.107 49.11-49.107zm13.68 12.02c0-.23-.13-.42-.49-.77-.88-.8-2.9-2.64-3.16-2.64-.23 0-.36.19-.88 1l-.84 1.34h-2.9c-1.36-.39-2.31-.58-4.16-.88v11.71c0 .84 0 1.03.81.95l2.38-.23c.65-.07.65-.23.65-.99v-1.26h3.48v.84c0 .65 0 .84.71.8l2.48-.19c.61-.04.68-.23.68-.88v-7.73c1.01-.46 1.24-.65 1.24-1.07zm-4.1 32.03c.78 0 2.34-.61 2.34-2.41 0-3.98-6.77-4.36-11.58-4.67v.11c3.02 1.27 6.02 3.98 7.35 5.51 1.17 1.31 1.27 1.46 1.89 1.46zm-.07-18.03c1.04-.91 1.11-.99 1.11-1.3 0-.3-.16-.46-.62-.92-.62-.57-2.8-2.64-3.12-2.64-.33 0-.43.27-.85 1.08l-.75 1.45h-11.9c-1.66-.57-3.58-1-4.43-1.19v13.9c0 .84 0 .91.72.88l2.57-.16c-1.01 1.19-4.92 4.86-8.04 6.81v.12c4.33-.77 8.79-2.41 12.49-4.82 1.04-.04 1.14-.08 1.14-.39 0-.26-.35-.38-.45-.42-.62-.26-3.65-1.68-4.33-1.95v-.73h12.49c0 1.19 0 1.38.75 1.31l2.44-.2c.78-.07.78-.34.78-.99v-9.84zm-10.25-11.21c1.14-.65 1.14-.92 1.14-1.11 0-.34-.13-.46-1.33-1.45-.42-.39-2.18-1.88-2.51-1.88-.29 0-.39.19-.74.92l-.69 1.38h-2.24c.16-.96.23-1.57.29-2.3.49-.07 1.11-.19 1.11-.46 0-.26-.2-.34-.52-.42-.36-.07-2.05-.5-4.53-.95-.03.8-.06 1.76-.29 4.13h-5.04l.16.42h4.82c-.85 7.23-3.42 10.41-4.98 12.05v.12c2.08-.88 5.59-2.68 7.45-6.85 2.21 1.15 2.34 1.72 2.34 3.52 0 1.07 0 1.22.75 1.22 4.2 0 4.39-2.6 4.81-8.34zm11.29 81.79l.1.439c-3.43.771-6.99 1.17-10.65 1.17-3.16 0-6.25-.3-9.25-.88l.09-.479c.12.05.3.04.58.01l2.31-.229c.62-.08.69-.15.69-1.03v-11.601c.32.54 1.1 1.761 1.66 4.631.26 1.449.35 1.909 1.2 1.909.98 0 2.11-1.109 2.11-2.6 0-3.02-3.7-4.25-4.97-4.67v-1.57h5.98c.2 0 .43 0 .43-.26l.38.01c-.16 4.69-1.07 11.08-5.43 14.8l.07.07c8.88-3.37 9.27-13.47 9.27-18.899v-1.69h1.95v20.29c0 .84 0 .91.72.84l2.5-.229.26-.032zm-1.01-124.35l-1.1 1.77h-2.73v-2.15c1.29.09 2.56.22 3.83.38zm-.73-11.21l-.83 1.27h-8.29c-.56-.19-3.74-1.15-4.1-1.27v2.64c-.56.03-1.11.06-1.66.11-.91-.94-2.51-2.36-2.6-2.36-.1 0-.3.34-.39.5l-1.48 2.29c-.47.05-.93.12-1.4.19h-3.04l.16.45c-40.13 7.04-70.72 42.14-70.72 84.25 0 .54 0 1.07.02 1.6l-5.95-6.94c2.6-45.16 38.07-81.65 82.8-85.87l-1.17 1.81h-6.15l.16.45h10.64c.19 0 .42 0 .42-.26s-1.21-1.36-2.13-2.15c1.79-.14 3.6-.22 5.42-.24v3c0 .61.03.69.61.65l2.48-.23c.58-.04.58-.11.58-.8v-2.61c.82.02 1.63.04 2.44.09v2.78c0 .69.03.81.72.77l2.47-.19c.31-.02.46-.09.54-.22l.45.29zm-.24 50.37v8.38h-3.48v-8.38h3.22zm-.33-46.43v4.29h-2.53v-4.5c.85.05 1.69.12 2.53.21zm-15.19 66.75h12.49v3.56h-12.49zm0-3.83h12.49v3.37h-12.49zm12.49-3.75v3.33h-12.49v-3.33h12.23zm-3.67-49.67v3.29c-.62-.01-1.24-.02-1.87-.02-1.87 0-3.72.07-5.55.22v-2.27c.39-.15 1.4-.69 1.4-.95 0-.12-.03-.2-.07-.27h6.09zm0-2.79v2.33h-6.51l-2.16-2.06c2.24-.2 4.51-.3 6.8-.3.62 0 1.25.01 1.87.03zm0-7.09v4.67h-2.44v-4.69l.57-.01c.62 0 1.25.01 1.87.03zm-.62 110.9v3.79c0 .66-.01 1.391-.04 2.16l-.38-.01c0-.43-2.44-3.33-2.7-3.33-.1 0-.2.15-.43.57l-1.53 2.6h-1.75v-3.75c.55-.27.78-.38.78-.57 0-.149-.2-.229-.33-.27-.13-.04-3.58-.42-4.26-.5v-.46h10.22c.22 0 .35-.03.42-.23zm0-8.49v8.42c-.03-.38-2.51-3.601-2.73-3.601-.13 0-.33.341-.43.57l-1.43 2.87h-2.89c1.46-1.49 3.77-4.28 4.75-5.7.22.04.78.12.78-.3 0-.46-3.35-1.8-3.87-1.99h5.23c.2 0 .39 0 .39-.27h.2zm-5.66-102.33v6.1c-41.22 2.3-74.05 36.55-74.05 78.33 0 3.63.25 7.19.73 10.69l-6.76-7.89c-.03-.93-.05-1.86-.05-2.8 0-44.23 34.15-80.65 77.48-84.24h1.22c.14 0 .28 0 .35-.12.36-.03.72-.05 1.08-.07zm-1.47 4.82c.2 0 .43 0 .43-.3 0-.39-3.19-3.22-3.26-3.22-.16 0-.32.31-.42.46l-1.66 2.6h-4.19l.16.46h8.94zm1.01 43.59h.26c-.13 2.79-.16 3.1-.26 4.09-.09 1.15-.42 1.27-1.07 1.27-.49 0-1.72-.16-2.64-.27.43-.92.98-2.6 1.4-5.09h2.31zm-.71 54.19h.1c-.46 3.71-.95 5.51-1.63 7.99h-2.93c1.46-.38 1.89-1.561 1.89-2.75 0-3.25-4.56-5.09-4.91-5.24h7.48zm-9.27-86.95v6.24c-28.31 6.71-49.43 32.21-49.43 62.54 0 16.061 5.92 30.76 15.7 42.04l-1.31 1.13-16.13-18.82c-2.82-7.59-4.35-15.79-4.35-24.35 0-33.71 23.82-61.95 55.52-68.78zm0-7.23v6.21c-32.25 6.84-56.52 35.54-56.52 69.8 0 7.77 1.25 15.26 3.57 22.271l-8.72-10.161c-.62-3.95-.94-7.99-.94-12.11 0-37.63 26.98-69.08 62.61-76.01z" fill="#221E1F"/></svg>