<svg xmlns="http://www.w3.org/2000/svg" width="640" height="480" viewBox="0 0 640 480"><path d="M346.938 30.678h5.303c2.886.281 4.915 1.419 7.071 2.431.186.256.291.592.221 1.104 3.347 1.293 6.307 2.974 8.176 5.745.905-.095 1.415.205 1.988.442 1.1 1.625 2.72 2.731 3.757 4.419 3.114.273 3.569 3.207 5.745 4.419-1.83 3.989-10.761.877-14.584 2.873-3.957-1.083-10.908.958-16.13 0-1.212-.525 1.01-1.11 1.104-1.768-1.641 1.408-3.049 1.248-5.966 1.768-.82.146-1.813.775-2.651.884-2.651.344-5.365-.552-7.955 0-.914.195-1.727.975-2.651 1.104-3.196.449-6.783-2.066-8.176.663-5.12.11-9.474.985-13.037 2.651-5.756.699-11.814 2.882-17.898 3.978-8.197 3.401-16.913 5.751-24.969 9.06-2.94 1.208-5.146 3.692-8.396 3.978-.905.335-1.773 1.678-2.431 1.546-.402-1.359 1.052-.863 1.105-1.768-2.364.215-4.271 2.799-5.966 4.419-.64-.637.43-.691.221-1.547-2.109 1.279-2.695 4.081-6.187 3.978-4.142 4.034-10.871 5.481-14.583 9.943h-1.547c-1.336.579-1.975 1.855-2.873 2.872l-7.292 5.083c-3.051 3.708-8.059 5.761-11.048 9.501-1.97 2.465-3.483 4.96-5.745 7.071-6.77 6.314-12.861 12.829-18.119 20.549-2.085 4.102-4.866 7.509-7.292 11.27.007 2.143-.987 3.284-2.209 4.198-.009.727-.373 1.1-.221 1.988-.979.937-1.707 2.124-2.652 3.094-1.195 4.484-3.401 8.133-5.303 12.153-2.791 5.899-4.749 13.643-7.733 18.782v2.652c-1.287 1.23-.859 3.326-1.547 5.524-.174.557-.794 1.1-.884 1.547-.132.662.194 1.538 0 2.209-.498 1.724-2.46 3.123-1.768 5.745-1.208 2.188-1.292 5.461-1.768 8.838-.318 2.257-1.311 4.533-1.546 6.408-.117.927.235 1.919.221 2.873-.025 1.667-.869 3.337-1.105 5.303-.688 5.741 1.333 12.898-.663 16.352.473 9 1.034 16.565.663 26.294.021.863 1.079.689 1.105 1.547.107 1.359-.393 2.111-.221 3.535-.213.803.993.186.884.885-.466 5.771 2.214 9.905 2.431 15.688-.354.87.954.077.884.663 1.301 9.461 5.53 17.886 8.175 26.736 1.81 1.16 1.556 3.76 2.431 5.745.573 1.301 1.839 2.558 2.652 3.978 2.406 4.204 4.452 9.388 7.292 12.595 2.441 2.758 4.934 5.787 6.629 9.06 1.215 2.346 1.523 4.757 3.978 5.745.587 2.265 1.96 3.494 3.314 5.082 1.393 1.634 2.941 3.128 4.198 4.42-.458 1.671-3.665 1.546-3.093 3.535 1.418.759 1.603-1.439 2.209-2.21 1.129.387 1.16 1.998 2.651.884 5.082 7.072 12.353 11.954 18.561 17.898 2.388.116 3.326 1.683 4.198 3.314 6.648 2.779 11.585 7.271 18.119 10.164-.265 1.503-2.098 1.438-2.431 2.873 1.814-.248 2.618-1.507 3.978-2.21 3.7 1.751 6.89 4.011 11.49 4.861.727 1.336 2.019 2.105 3.094 3.094.655.192 1.09-.944 1.326-.442 15.981 6.044 34.065 11.154 53.473 13.037.947.011.589 1.326.663 2.209 1.333.266 1.279-1.208 2.43-1.546 1.562-.46 4.339 0 6.629 0 6.807-.001 14.025.268 20.108 0 4.186-.185 8.938-.445 12.595-1.547 1.565-.472 2.714-1.318 4.198-1.547 1.68-.259 3.377-.019 5.303-.221 5.157-.543 10.372-3.126 15.468-4.861 5.489-1.869 10.986-3.195 15.468-4.861 2.612-.972 5.144-2.691 7.733-3.757 2.758-1.134 5.523-2.038 7.954-3.756h1.769c6.523-4.074 13.614-7.052 19.224-11.933 2.952-2.568 5.646-5.466 9.501-6.85 13.285-13.378 29.041-24.284 38.89-41.099.508-.45.979-.938 1.547-1.326.132-.458-.273-1.451.221-1.547 3.019-6.63 8.331-10.966 10.827-18.119 1.097-.744 2.068-1.614 2.873-2.651.157-3.599 1.762-5.751 3.314-7.955.938-3.922 2.433-7.289 4.198-10.385v-1.547c2.881-6.684 3.997-13.69 5.745-21.434.866-3.837 2.788-7.526 3.094-11.49.427-5.54.079-12.457 1.546-16.793-1.624-1.865.037-4.307 0-6.629-.013-.827-.536-1.524-.662-2.431-.467-3.355.703-7.354-.442-10.606-.319-.835.607-.424.442-1.105-1.239-3.958-.852-8.125-1.547-12.595-.307-1.971-1.578-4.592-2.21-7.071-.894-3.503-1.406-6.979-2.651-9.06-.6-5.662-4.087-8.435-4.861-13.921-.178-.78-1.213-.702-.884-1.989-.257-.701-1.371-.544-1.547-1.326-2.062-6.334-5.598-11.195-8.396-16.793-.057-.459-.971-.061-1.104-.442-.829-2.854-3.194-4.172-3.978-7.071-1.06-.856-2.16-1.67-2.431-3.314-.19-.547-1.538.065-1.768-.442-.839-5.054-5.949-5.836-7.292-10.386h-1.547c-.624-2.616-2.425-4.056-4.641-5.082-.888-3.163-4.199-3.902-5.523-6.629-2.103-1.286-4.243-2.533-5.524-4.64-5.247-1.897-7.433-6.856-13.037-8.396-.886-1.987-3.385-2.359-4.64-3.978-5.557-1.554-9.379-6.648-16.352-7.513-.379-.284-.6-.726-.663-1.326-1.981.214-2.069-1.466-4.198-1.105-1.225-1.279-3.968-1.041-5.082-2.431-4.5.048-6.68-2.375-10.164-3.314-.479-.129-1.041.091-1.547 0-1.655-.296-3.277-1.298-4.861-1.546-2.94-.461-4.205-.293-5.966-1.768-1.4-.371-3.169.396-4.419.221-.881-.124-1.523-.928-2.431-1.105-.521-.102-1.239.267-1.768.221-.961-.083-1.819-.986-2.652-1.105-2.321-.331-5.012 1.369-7.07-.663-7.205.754-16.793-1.441-21.434.442-5.277-.2-11.545.224-16.352 1.326-1.661.381-3.286 1.27-4.861 1.546-2.732.48-4.991-.614-5.745 1.547-.66-.003-.751-.574-1.326-.663-2.081.699-3.627 1.188-5.303 1.768-2.744.947-5.395 1.156-7.734 2.209-3.13 1.41-8.111 2.052-10.164 4.198-2.789-.579-4 1.491-6.187 2.431-5.742 2.466-13.025 4.022-16.352 8.176h-1.546c-.903.423-1.727.925-2.431 1.547-4.583.929-8.089 4.044-11.711 6.85-3.353 2.597-6.936 4.639-9.501 7.071-1.244 1.18-2.006 2.847-3.314 3.978-2.405 2.078-4.67 3.786-6.85 5.966-6.405 6.405-12.143 13.77-17.456 20.992-.505 2.441-2.41 3.482-3.756 5.082.479 3.007-1.693 3.855-2.431 5.524-.255.577.003 1.346-.221 1.989-.556 1.595-2.077 3.724-3.093 5.745-1.136 2.259-1.882 4.681-3.094 5.966-1.695 1.798-3.836 2.482-5.082 4.64 2.136 0 1.93-2.342 3.536-2.873.678 1.337-1.346 1.696-1.547 2.873-.011.658.65 1.121.221 1.546-2.859 8.852-5.375 18.047-8.838 26.295v1.768c-2.189 4.292-.802 12.162-3.535 15.909.147.884.548 1.514.884 2.21.494 7.806-.667 14.653 0 22.097.39 4.357 1.579 9.013 2.431 13.258.865 4.313 2.199 8.323 3.535 12.152 8.227 23.574 19.923 43.02 35.133 58.997 3.306.585 4.376 3.725 6.629 5.745.608.546 1.56.643 2.209 1.105l5.745 4.419c2.674 1.919 5.416 3.946 7.071 6.187 9.243 4.163 17.444 9.366 28.062 12.153.753-.163.364.814.884.884 4.995-.207 7.095 2.48 11.932 2.431 1.008-.271.698.775 1.326.884 2.941.145 4.484.339 6.629.663 3.779.571 7.785 1.085 11.932 1.104 3.479.017 7.345-.923 9.281.663 11.618.202 21.386-1.446 30.935-3.314.684-.053.858-.615 1.326-.884h1.325c4.881-2.039 9.845-2.81 14.584-4.198 4.644-1.36 8.6-3.739 12.815-5.966 8.213-4.337 15.598-9.425 22.76-15.025 13.045-10.202 25.399-22.394 34.691-35.797.7-1.01 1.062-2.018 1.768-3.093.726-1.107 2.156-1.867 2.651-3.094.264-.654.106-1.526.441-2.21.489-.995 1.569-1.332 2.21-2.209 1.322-1.811.914-4.355 2.651-5.745v-1.768c1.496-1.706 1.604-4.141 2.651-6.188.454-.887 1.347-1.529 1.769-2.431.858-1.837 1.257-4.507 1.988-7.07.648-2.273 1.919-4.564 2.431-6.629.855-3.454 1.326-5.932 1.768-9.06.312-2.204.668-4.458 1.768-6.408.434-3.143-.586-6.237-.221-9.06.108-.84.698-1.584.884-2.431.855-3.899-.79-6.923-.884-10.385-.099-3.643.969-6.412-.663-8.175.093-2.155.039-4.164-.884-5.303.418-4.707-1.223-7.206-2.21-10.606-.729-2.516-1.007-5.201-1.768-7.292-1.29-3.548-3.494-6.979-5.082-10.386-1.694-3.635-3.477-7.115-5.303-10.385l-1.768-1.547c-1.026-2.657-2.004-5.362-4.42-6.629-.854-2.608-2.359-4.564-4.861-5.524v-1.546c-.308-.355-1.09-.235-1.325-.663-2.259-3.781-6.341-5.739-8.618-9.501-.636-.026-1.446.121-1.768-.221-.275-.535-.547-1.074-.663-1.768-1.254-.808-2.874-1.25-3.314-2.873h-1.325c-.928-1.945-3.214-2.531-4.641-3.977-.321-.342-1.131-.195-1.768-.221-.837-1.52-3.188-1.525-3.756-3.314-5.785-2.17-11.188-4.723-16.352-7.513.201-1.051 1.318-1.186 1.547-2.209-1.238.382-2.048 1.193-2.431 2.431-1.996-.609-3.658-2.558-5.966-2.873-2.193-.3-3.75.295-5.524-.442-.398-.166-.668-.738-1.104-.884-4.428-1.476-9.269-1.016-13.258-2.431-.55-.683.759-1.186-.442-1.547-1.561-.625-3.356.289-3.978 1.326-.61.095-.207-.824-.663-.884-1.893 1.49-3.868.184-6.407 0-5.837-.423-12.638 2.803-17.678.221-.983 1.005-3.06.917-5.082.884-1.018.208-.424-1.197-.884-1.547-1.65.148-1.584 1.904-3.094 2.431-1.82.635-4.307-.045-6.407.221-2.047.259-3.375 1.531-4.861 2.21l-1.768-.663c-2.779 2.451-8.248 2.211-11.048 4.64-3.524.969-6.925 2.061-9.281 4.198-.902.108-1.344-.976-1.988-.442-1.333.583-1.792 2.038-2.873 2.873-6.257.961-7.891 6.546-13.479 8.176-5.084 5.081-9.973 10.356-14.583 15.909-.535.275-1.073.547-1.768.663-.556 2.096-2.387 2.916-3.536 4.419-.276 2.228-1.585 3.423-3.093 4.419-.866 4.954-5.851 5.787-6.187 11.269-1.448 2.087-2.186 4.885-3.756 6.85-.009.728-.373 1.1-.221 1.989-2.765 3.864-3.575 9.683-5.745 14.142-.12 3.695-1.716 6.734-2.431 9.943-.66 2.964.146 5.851-1.768 7.955.247 7.917-.336 14.907 0 21.655.143 2.87 1.151 5.44 1.547 8.176.154 1.066-.132 2.247 0 3.314.454 3.666 2.171 7.712 3.314 11.269.595 1.851 1.071 3.789 1.768 5.524 1.738 4.331 4.114 8.401 5.745 12.374.176.781 1.29.625 1.547 1.325-.699 1.73-.258 2.007-.663 3.757 1.373.268 1.26-.95 2.431-.884-.36 2.201 1.939 1.743 1.547 3.978 2.123.926 2.613 3.187 3.977 4.86 1.235 1.518 3.558 2.836 5.303 4.641 3.125 3.23 5.882 6.218 8.618 9.28 13.888 6.821 26.406 15.402 45.519 16.794 2.215.161 4.56-.51 6.85-.222.726.092 1.472.719 2.431.884 2.952.509 7.435-.013 8.838-.884 18.417.994 31.224-5.427 42.646-12.152.577-.062.95.08.884.662 4.758-4.564 9.854-8.025 14.362-12.152 1.64-1.501 2.386-3.259 3.757-5.082 1.795-2.389 4.133-4.342 5.966-6.629 3.84-4.792 7.786-9.622 10.606-15.025 1.933-3.705 3.633-8.272 6.407-10.828-1.104-2.499 1.173-6.573 2.652-8.617-.229-4.574 1.435-7.257 2.431-10.606.052-10.438.378-21.148-2.431-28.725v-1.989c-2.325-3.052-1.83-8.923-5.083-11.048-.64-5.105-3.955-7.534-5.303-11.932-4.507-4.921-8.099-10.757-12.815-15.467-1.009.198-1.253-.368-1.989-.442l-1.768-2.43c-.725-.013-.845-.628-1.768-.442-1.477-2.796-5.357-3.187-7.071-5.745-.805.068-1.438-.035-1.988-.221-.556-.254-.695-.925-1.104-1.326-2.99.338-4.985-2.38-7.734-3.314-1.268-.431-3.132-.25-4.64-.663-.943-.258-1.783-.948-2.651-1.104-1.148-.207-2.35.158-3.536 0-.633-.084-1.163-.548-1.768-.663-1.414-.269-3.343.149-5.303 0-2.922-.222-5.438-1.539-7.513-.221-.856.12-.191-1.282-.884-1.326-1.461.66-3.047 2.328-5.083 1.105.42-1.643 2.184-1.942 2.873-3.314-6.538 6.386-19.812 5.215-27.179 10.385h-2.209c-4.026 2.475-8.243 4.108-12.153 6.408-8.578 5.044-14.333 13.576-20.108 21.433-2.698 6.951-5.289 14.009-7.513 21.434-.374 4.345-.242 10.896-1.768 14.804.187.919.887 1.323 1.104 2.21-1.674 1.79-.534 5.083.221 6.85.411 1.001-.794.385-.884.884 2.243 4.842-2.63 7.455-4.861 9.943 2.521.588 3.03-4.418 5.303-3.977 1.542.299.861 2.637 2.431 3.314.823 2.407 1.546 4.689 2.651 6.629 1.243 2.181 3.421 3.598 4.198 5.966.057.459.971.061 1.105.441 2.289 3.673 5.627 5.858 9.06 9.06 2.48 2.313 4.738 4.708 7.513 6.629 10.325 7.147 26.972 11.417 41.32 4.641 6.631-2.033 12.385-5.054 17.456-8.618 5.136-3.61 9.074-8.46 13.258-13.036.131-.458-.273-1.452.221-1.547 2.437-5.436 5.54-12.2 6.408-19.445.556-4.639-.758-9.694.441-14.362-.257-1.33-1.915-2.301-1.104-3.978-3.866-1.953-4.476-7.161-8.396-9.059.138-2.82-4.707-3.588-2.21-6.629-2.104 2.239-4.826.014-5.966-2.21-1.829-.232-3.098-1.027-3.978-2.209-2.926-.535-5.271-1.652-7.513-2.873-6.336-.257-10.654 1.757-14.583 4.419-2.715 1.839-4.096 4.623-5.967 7.292-1.568 2.239-2.996 4.539-3.314 6.85-1.856 13.487 14.111 15.432 20.108 22.097 1.114 1.239 2.118 3.546 1.988 5.303-.915 12.43-12.962 19.69-27.179 15.909-.821.232-.433-.745-.884-.884-2.813.235-4.379-.776-5.524-2.21-5.516.213-5.586-5.02-9.722-6.187-.237-1.91-2.195-2.63-3.094-4.198-1.737-3.031-2.502-6.702-4.64-9.502.196-.466.673-.652.663-1.325-1.586-2.096-1.217-6.148-1.988-9.06.087-.943.978-1.085 1.104-1.988-.008-.729-.628-.845-1.326-.884.991-3.354.843-7.848 1.547-11.49 2.672-7.197 5.637-14.102 11.49-18.119v-1.768c.516.068.913.433 1.326 0 2.452-2.345 5.431-4.511 8.839-6.408 3.557-1.98 7.241-2.912 11.048-4.198.45-.152.844-.735 1.326-.884h1.546c1.433-.499 2.707-1.598 4.198-.221l1.989-1.326c4.139.358 10.826-1.167 14.142.884.067 1.319-1.522.982-1.547 2.209 1.543-.225 1.783-1.752 2.873-2.431 1.033 1.647-1.735 2.043-1.105 3.314 1.812-.177 1.626-2.352 3.094-2.873 9.162 1.96 16.044 6.2 22.097 11.27 3.049 3.346 6.297 6.29 9.06 9.943 2.752 3.641 5.155 7.641 6.629 12.595-.095.61.823.208.884.663.364 3.489 2.35 7.132 2.651 11.269.099 1.364-.216 2.836 0 4.198.366 2.313 1.889 4.842 0 6.851.647 3.033-.59 6.099-.884 7.733-.165.918.171 1.876 0 2.651-.228 1.031-1.158 1.877-1.326 2.873-.135.801.168 1.706 0 2.431-.157.677-.843 1.232-1.104 1.988-.84 2.429-.472 4.163-2.431 5.082-.447 3.63-2.478 5.54-4.198 7.955-1.452 2.037-2.216 4.053-3.314 6.187-1.979 3.844-5.935 7.634-9.502 10.386-3.83 2.955-7.841 6.071-11.711 8.176-3.867 2.981-8.938 4.761-13.921 6.629-.327.041-.202.533-.221.884-1.44-.573-2.252.45-3.314.884-2.411.166-4.434.722-6.187 1.547-7.038 1.211-15.646.854-23.864.884-.858-.247-1.021-1.189-1.989-1.326-2.628.3-5.556.478-6.85-1.104-6.825-.467-10.174-4.409-15.688-6.188-.32-.343-.465-.86-.663-1.325-.927.116-1.234-.387-1.989-.442-4.741-5.055-12.182-7.41-15.247-14.142-.177-.559-.91-.563-1.326-.884l-.442-1.547c-1.161-.901-1.828-2.296-3.314-2.872-.201-2.009-2.093-2.326-2.209-4.42-.221-.368-1.022-.156-1.105-.662-1.28-2.992-2.098-6.446-4.64-8.176-.02-2.03-.361-3.259.221-4.861-.238-.646-1.052-.716-1.988-.663-1.286-5.343-4.261-8.997-3.978-15.909.213-.802-.993-.186-.884-.884-.99-5.891-2.111-14.412.884-19.003-.428-4.58.697-9.049 3.094-11.49-1.847-2.566.888-5.146.884-7.955 2.582-1.41 1.635-3.795 2.651-6.408.517-1.329 2.095-2.124 2.873-3.314 1.747-2.675 2.787-5.797 4.419-8.396 11.6-18.476 28.675-32.929 51.926-39.332 6.428-1.77 13.094-3.619 20.992-3.977 7.831-.356 13.679.609 20.328 2.209.793.13 1.069-.257 1.547-.442 1.676.755 3.452 1.409 5.966 1.326 3.365 1.423 7.245 2.331 9.943 4.419 7.209 1.63 13.003 4.675 17.678 8.838 5.748 1.543 8.248 6.335 13.479 8.396 8.723 7.039 14.45 17.074 20.107 27.179.271 1.007-.606.867-.441 1.768 2.358.804 2.143 3.105 3.093 5.524 1.002 2.548 2.674 3.948.222 5.966.36.305 1.297-.188 1.768.442 2.292 4.484 2.94 10.611 3.535 16.793.415.768-.253.839-.441 1.547 2.201 3.47.839 10.503 1.546 15.467.153.89-.93.543-.884 1.326.15 2.212-.014 4.11-.884 5.303.579 3.463-.94 6.114-.884 9.723-1.602 3.701-1.443 9.163-3.978 11.932.288 2.794-1.566 4.895-2.651 7.071-.531 1.067-.572 2.294-1.104 3.314-.371.71-1.132 1.28-1.547 1.988-1.432 2.444-2.32 5.099-4.198 7.513-3.361 4.321-5.729 7.991-9.943 10.827.203.603.69-.309 1.326 0-4.267 7.003-9.542 12.998-16.352 17.456-3.418 4.021-7.832 7.047-12.374 9.943-.407.477-.68 1.089-1.104 1.547-4.319.69-5.495 4.522-9.943 5.082-1.056.05-.948 1.263-1.769 1.547-3.051.098-4.355 3.308-8.175 3.314-.802.378-1.051 1.307-1.769 1.768-3.153.44-5.039 1.367-7.954 2.21-1.89.546-3.858 1.035-5.524 1.547-.839.258-1.78 1.043-2.651 1.104-.758.054-1.675-.524-2.431-.441-.731.08-1.683 1.09-2.872 1.325-1.882.373-3.001-.331-3.536.884-3.131-.589-6.574.5-9.06-.662-.753 1.335-3.683 2.42-4.64.441-6.35-.059-13.295.479-17.677-1.547h-3.536c-.752.164-.364-.813-.884-.884-4.191-.154-6.503-2.188-10.606-2.431-.822.233-.434-.745-.884-.884-7.308-1.604-13.351-4.474-19.003-7.733-.243-1.568.551-2.101.663-3.314-1.811-.19-2.333.907-2.873 1.988-1.94-.785-3.436-2.014-5.524-2.651-.369-.367-.895-.578-.884-1.325-1.703.267-1.218-.271-2.209-.885-.8-.494-1.34-.735-1.989-1.104-.493-.28-1.157-.321-1.326-.441-.296-.212-.135-.912-.442-1.105l-2.652-1.104c-.639-.511-.96-1.336-1.547-1.988-1.719-1.913-3.624-3.074-5.966-4.199-.85-1.359-1.448-2.972-3.314-3.314-1.059-2.329-2.886-3.89-5.082-5.082-.472-1.663-1.543-2.729-3.094-3.314-.178-1.112-.351-2.248 0-3.314.075-.145-1.504.655-1.989 0-1.049-2.339-2.813-3.963-3.535-6.629-3.81-4.145-6.631-9.278-8.176-15.688-.23-.801-1.296-.766-1.547-1.546.353-2.488-1.344-2.928-1.768-4.641-.179-2.978.374-5.225.884-7.513-1.025.079-1.348.861-1.546 1.768-2.155-1.749-2.368-5.439-2.431-9.28-.512-1.329-1.55-2.291-1.768-3.535-.67-3.836 2.233-5.289 3.978-7.292-1.877-.373-2.353 2.485-4.64 2.431-.772-2.248.633-6.673-1.105-7.955.833-2.831-1.293-7.433 1.768-8.176-.223-.86-.76-.034-1.546-.221-.201-7.735.471-13.707 1.768-19.887.555-2.642 1.415-5.232 1.547-7.513.036-.63-.315-1.563-.221-2.21.188-1.299 1.403-2.917 1.768-4.419.226-.931-.034-1.768.221-2.431.761-1.975 3.586-2.953 3.978-5.082-.086-.651-1.042-.432-1.326-.884.489-5.154 3.957-8.104 4.641-12.374 2.958-5.07 4.778-11.278 9.059-15.025 1.403-3.964 3.987-6.66 6.408-9.723 5.899-7.462 12.03-15.051 19.666-20.329 2.152-3.888 6.473-5.606 9.723-8.396.587-.002 1.262.083 1.547-.221 1.116-.357 1.291-1.655 2.209-2.209.625-.272 1.364-.272 1.989 0 1.974-2.243 4.591-4.246 7.513-5.082 1.208-.346 2.342-.188 3.535-.663 3.285-1.308 5.81-4.135 9.06-5.524 4.24-1.812 9.326-3.182 13.7-4.419l.442-.884c5.758-.23 11.449-1.849 16.351-2.652 3.039-.498 6.149-.293 8.176-1.546 16.233-.314 34.048-2.164 47.508 2.431.327.489-.216 1.583-.442 2.209.957.143 1.886-1.646 3.094-1.989 3.599 1.135 7.334 1.569 10.606 3.094.45.209.846.918 1.325 1.104 1.307.508 2.702.741 3.978 1.326 1.19.546 2.453 1.444 3.535 1.768.613.184 1.414-.021 1.989.221 1.94.815 3.169 3.14 5.523 3.094-.055.645.416.762.663 1.104 6.047 2.35 10.525 6.269 15.688 9.501.198.465.344.982.663 1.326 5.745 3.682 10.712 8.143 15.025 13.258 3.11 1.383 3.965 5.021 7.07 6.408.202.756.547 1.369.663 2.209.855.029.852.917 1.768.884 2.264 5.396 7.551 7.771 8.839 14.142 1.274 1.598 2.944 2.801 4.198 4.419v1.547c.728.156.372 1.396 1.547 1.105 3.435 8.497 7.987 15.876 9.943 25.853-.213.802.993.186.884.884.32 4.32 2.084 7.196 2.431 11.49-.194.71.729.303.663.884.205 2.888-.613 6.8.884 8.396 1.426 12.098 1.546 27.801-2.431 37.122v1.988c-.26.329-.555.624-.884.884-.153 4.845-1.654 9.683-3.314 13.037.276 2.979-.949 6.032-2.431 7.955v2.651c-.319.785-1.005 1.204-1.547 1.768-.748 4.481-3.153 7.306-4.198 11.49-10.553 19.204-22.268 37.244-37.563 51.705-3.022.067-3.947 3.01-5.745 4.641-.577.523-1.418.626-1.989 1.104-2.259 1.897-3.957 4.223-6.407 5.966-2.551 1.815-5.875 3.708-9.06 4.861-1.757 1.927-5.539 3.004-6.851 4.641-1.107-.204.018-1.459 0-1.989-4.819 4.094-10.954 8.049-17.677 9.502-3.918 2.563-9.09 3.873-13.921 5.524-.802-.009-1.744.124-1.988-.442-3.062 3.99-11.405 1.788-14.805 5.082-1.05-.128-2.037-.319-3.314-.221-1.996.651-5.274.597-9.28.884-7.892.564-16.736 1.357-25.19.884-.392-.271-.896-.431-1.105-.884-10.459.295-17.996-2.333-27.178-3.314-2.23-1.893-5.193-1.711-8.618-2.431-3.219-1.274-6.484-2.501-10.165-3.314-1.895-1.419-5.229-1.399-6.629-3.314-1.905.211-2.541-.847-3.977-1.104-.299-1.772 1.362-1.584 1.547-2.873-1.667.175-1.613 2.07-3.094 2.431-1.975-1.267-4.708-1.773-6.187-3.535-2.796-.666-4.396-2.528-6.85-3.535-.845.034-.718-.902-1.105-1.326h-1.989c-4.353-3.086-9.551-5.327-12.595-9.723-.979.242-1.099-.374-1.768-.441-5.802-4.716-11.257-9.828-16.13-15.468-4.809-5.564-9.758-11.568-12.816-18.782-1.236-1.636-2.895-2.85-3.094-5.523-3.914-2.537-4.481-6.896-5.745-11.27-.63-2.179-2.468-5.038-3.756-8.176-1.213-2.953-1.735-6.536-2.873-9.06-.364-.806-.528-1.767-.884-2.651-.131-.327-.76-.53-.884-.884-.418-1.197-.282-2.664-.663-3.978-.844-2.908-2.081-6.521-2.651-9.943.167-1.085 1.213-1.291 1.326-2.431.026-.909-1.729-.039-1.989-.662.589-3.535-1.31-4.582-.884-7.955.216-.952-.83-.643-.884-1.326-.318-5.793-1.365-11.772-.884-17.014.194-.71-.729-.303-.663-.884.584-2.701-.37-5.729 0-9.06.135-1.217.785-2.494.884-3.756.224-2.848-.93-5.897.663-7.292-.248-6.361 1.253-10.974 2.652-15.688-.132-.458.273-1.452-.221-1.546 2.955-6.768 3.336-16.108 7.513-21.655-.247-4.813 3.121-6.013 3.094-10.606 1.025-1.037 1.686-2.439 3.535-2.652-.328-.776-.466-1.743-.884-2.43 2.327-3.266 2.81-7.671 5.524-10.386 1.457-1.457 3.782-1.497 4.419-3.756-1.363-.232-2.335 2.933-4.198 2.21-.3-1.552 1.385-1.119 1.768-1.989.163-.869.461-1.602.663-2.431 9.272-15.181 19.307-29.599 32.481-40.878.261-.254.781-.25 1.326-.221 3.147-3.997 6.59-7.7 11.49-9.943 4.007-4.203 8.938-6.95 14.142-9.723 5.035-2.683 9.321-7.438 15.688-8.396 11.394-5.915 24.443-10.175 38.006-13.92 1.135.231-.527.949-.442 1.546 1.374.196 1.336-1.021 1.989-1.546 2.359-.146 3.733-1.275 6.629-.884.785.344.133-.75.663-.663 2.474.447 4.554-1.001 6.85-1.105.801-.036 1.609.331 2.431.221.793-.106 1.511-.732 2.431-.884 1.118-.185 2.515.258 3.977.221 1.813-.046 3.596-.949 5.304-1.105 1.014-.092 1.896.163 3.094.221 8.39.41 17.928.261 25.41.884 5.621.468 10.274.432 12.374 2.651 1.261.082 1.205-1.152 2.431-1.104 2.407 1.57 7.023.932 9.28 2.651 3.21-.217 5.985 1.164 9.06 1.989 2.565.688 5.089 1.444 6.851 2.651h1.988c22.031 9.096 42.154 18.46 58.113 32.703 6.264 5.59 11.711 12.297 17.456 18.119 5.102 5.17 8.586 11.544 13.037 17.456.113 4.159 4.009 4.535 3.978 8.839.057.458.971.06 1.104.442 4.097 6.366 7.896 13.89 10.827 21.654 1.017 2.694 2.514 5.52 2.873 8.175.108.807-.146 1.631 0 2.431.544 2.989 1.965 6.078 2.651 9.281.706 3.294 1.242 6.522 2.209 9.722.528.555-.559.74-.441 1.547.922.846.115 3.42 1.325 3.978-.657 3.758 1.149 7.016 1.326 10.164.119 2.13-1.341 4.771.221 6.629.036.699-.587.739-.441 1.547-.163.477.562 1.087.662 1.547.755 3.434.369 10.543 0 15.688-.105 1.482-.723 2.843-.883 4.198-.338 2.832.437 6.181 0 8.396-.365 1.848-2.317 3.522-.663 5.524-.126 1.052-.79 1.566-1.105 2.431.449 3.961.382 8.983-1.546 11.269-.526 5.36-2.084 10.452-4.199 15.025-2.165 4.684-3.811 9.146-5.523 13.7-1.054 2.799-3.051 4.637-3.978 7.07-.302.793-.165 1.855-.442 2.651-.371 1.069-1.377 1.968-1.988 3.094-1.41 2.597-1.649 5.177-3.535 6.85-.751 8.898-7.433 11.866-11.711 17.235-2.806 5.591-6.231 10.562-11.27 13.921-.495 2.777-2.953 3.729-4.419 5.303-2.176 2.336-3.952 5.052-6.188 7.514-3.483 3.835-6.484 8.166-10.606 11.048-.436.521-.765 1.149-1.104 1.768-.694.189-.933.835-1.768.884-9.395 10.621-22.695 19.742-36.238 26.736-4.584 2.368-9.71 5.611-14.362 6.851-.698.186-1.507.013-2.21.221-1.227.363-2.064 1.447-3.314 1.988-.658.285-1.516.188-2.209.442-1.135.415-1.958 1.462-2.873 1.768-2.053.686-4.104.456-5.966 1.547-.337-1.221 1.422-.346 1.326-1.326-1.695-.939-2.989 1.9-4.199 2.873-3.018-.319-4.186 1.215-6.407 1.768-2.602.646-5.496.844-7.955 1.547-.582.166-.96.675-1.547.884-2.024.72-4.251.208-6.407.662-1.131.238-1.957 1.365-3.314.885-.618-1.599 2.94-2.787 3.535-4.641-2.388 1.368-3.998 3.515-5.745 5.524-1.803.209-3.62-.282-5.304 0-.702.117-1.279.733-1.988.884-.9.19-2.017-.08-3.094 0-2.609.193-5.361 1.109-7.733.884-.889-.085-1.874-.694-2.872-.663-1.285.041-2.597 1.105-4.199 1.326-2.423.333-6.091-.001-9.501 0-3.598 0-7.405.501-9.723 0-.986-.214-1.685-1.476-2.43-1.547-.551-.053-.73.996-1.326.441.132-1.562 1.981-1.406 2.209-2.872-1.933-.384-3.076 1.931-4.198 3.093-7.718.427-12.805-1.778-20.329-1.546-.89.152-.543-.931-1.326-.884-4.455.035-7.79-1.049-11.711-1.547-.831.095-.782-.691-1.326-.884-7.106-.624-12.528-2.777-17.677-4.861-2.88-1.166-6.254-1.183-8.617-3.314h-1.547c-2.115-1.715-5.94-1.72-7.292-4.198-2.763-.552-4.891-1.738-6.629-3.314-.666.405-1.611.045-2.209-.222-.621-.275-.863-1.168-1.105-1.325-.974-.633-2.711-.325-2.431-1.768-2.328-.692-4.804-1.235-5.745-3.314-2.916-1.111-5.812-3.141-7.733-4.861-1.703-1.524-3.665-2.678-4.861-4.42-1.447-.247-2.437-.95-3.093-1.988-.138-.524-1.36.034-1.547-.441-.437-.595-.974-1.089-.884-2.21h-1.547c-3.996-4.843-9.661-8.017-13.258-13.258-2.28-.677-2.865-2.77-4.198-4.198-2.333-2.502-6.233-3.87-7.071-7.733-2.327-.704-2.788-2.799-3.978-4.42-.861-1.174-2.281-1.986-3.093-3.094-.899-1.225-1.089-2.872-2.652-3.314-.347-1.715-1.354-2.771-2.651-3.535-.84-2.622-2.909-4.015-3.536-6.85-3.229-2.663-4.936-6.849-6.629-11.048-.354-.383-.826-.647-1.326-.884-.034-1.365-1.297-1.502-1.104-3.094-3.68-4.851-4.834-11.28-7.292-17.235-.978-2.369-2.489-4.538-2.431-7.292-.648-.678-.917-1.734-1.768-2.209.284-1.489-.943-1.913 0-2.873-.041-.327-.534-.202-.884-.221 1.126-3.646-1.958-4.954-1.547-8.618-1.545-1.99-.744-6.326-2.431-8.175-.422-2.71-.424-5.276-.884-8.397-.302-2.051-1.854-3.735-.221-5.523-2.64-3.954-.512-11.837-1.326-17.235.233-.822-.745-.434-.884-.884-.491-3.235.942-7.151-.884-8.839v-2.431c.48-.643 1.221-2.705 0-3.093v-.442c1.538-2.06 1.454-7.423 0-9.501v-.663h.221c.939-.593.727-6.914 1.104-9.06.629-3.574.666-6.975 1.105-9.723.189-1.186.879-2.325 1.105-3.535 3.844-20.627 10.079-38.882 18.561-53.915 4.129-8.588 8.78-16.942 13.7-24.969 2.332-3.803 5.573-7.316 7.955-11.269 1.185-1.966 2.59-3.916 3.756-5.966 2.186-3.843 4.488-6.499 7.292-9.281 1.167-1.157 2.04-2.489 3.094-3.756 6.277-7.542 13.844-14.385 21.212-20.549 2.441-2.043 5.078-4.132 7.734-5.966 8.123-5.608 15.945-12.487 25.631-16.13 8.133-6.248 17.992-9.532 28.062-13.258 3.488-1.291 6.666-3.023 10.165-4.198 3.709-1.245 7.493-1.759 11.49-2.873 2.522-.703 4.728-2.025 7.292-2.651 8.52-2.08 16.958-3.048 25.411-4.861 2.291 1.703 5.763-.51 8.396.221-.153 1.172-1.59 1.062-1.768 2.209 1.922-.426 2.085-2.298 4.198-2.651 1.674-.28 3.399.593 5.082.442 2.362-.221 3.952-2.263 6.184-1.997z" fill-rule="evenodd" clip-rule="evenodd"/><path d="M129.951 235.069c1.454 2.078 1.538 7.442 0 9.501v-9.501zm0 9.944c1.221.388.48 2.45 0 3.093v-3.093z" fill-rule="evenodd" clip-rule="evenodd" fill="#fff"/></svg>