<!DOCTYPE svg [
	<!ENTITY ns_flows "http://ns.adobe.com/Flows/1.0/">
]><svg version="1.2" baseProfile="tiny" xmlns="http://www.w3.org/2000/svg" width="40" height="40" viewBox="0 0 40 40"><path fill="#fff" d="M30.9 9.9c-1.1.3-2.2 1-3.3 2.2-1.4 1.6-2.7 4-3.8 7.1-1.3 3.7-2.2 6.7-2.7 9 .7-2.3 1.7-5.3 3.4-9 2.9-6.6 6.3-8.7 8.6-9.3h.1-.2c0-.1-1.1-.3-2.1 0zm-18.5 2.2c-1-1.2-2.1-1.9-3.3-2.2-1-.3-2.1 0-2.1 0h-.2.1c2.3.6 5.7 2.7 8.6 9.3 1.7 3.8 2.7 6.7 3.4 9-.5-2.3-1.4-5.3-2.7-9-1.1-3.1-2.4-5.5-3.8-7.1zm18-2.2c-.3-.1-.8-.4-1.5-.2-1.3.4-3.7 2-5.9 9.5-.9 3.3-1.5 5.9-2 8.1.5-2.2 1.3-4.8 2.5-8.1 2.4-6.5 5-8.7 6.9-9.3zm-3.9-.1c-.1-.1-.3-.2-.6-.1-.7.2-2.4 1.3-3.9 9.4-.4 1.9-.6 3.6-.9 5.2.3-1.6.7-3.3 1.1-5.3 1.5-6.1 3.1-8.4 4.3-9.2zm-1.7 0c-.6.1-1.9 1.2-3.1 9.4-.2 1.6-.4 3-.6 4.3.2-1.3.4-2.7.7-4.3 1.1-6.3 2.4-8.6 3.5-9.3l-.2-.1s-.1-.1-.3 0zm3.3 0c-.1-.1-.4-.3-.8-.2-1 .2-3.1 1.7-4.8 9.4-.7 3-1.2 5.5-1.5 7.6.4-2.1 1-4.5 1.8-7.5 1.8-6.1 3.8-8.5 5.3-9.3zm-14.1 0c-.3-.1-.5 0-.6.1 1.3.8 2.9 3.1 4.3 9.2.5 2 .8 3.8 1.1 5.3-.2-1.5-.5-3.3-.9-5.2-1.4-8.1-3.2-9.2-3.9-9.4zm-2.9-.1c-.6-.2-1.2 0-1.5.2 1.9.6 4.5 2.8 6.9 9.3 1.2 3.3 1.9 5.9 2.5 8.1-.4-2.2-1-4.8-2-8.1-2.2-7.5-4.7-9.1-5.9-9.5zm13.6 9.5c-1.8 4.2-2.9 7.4-3.6 9.8.8-2.4 2.2-5.7 4.5-9.8 3.4-6.3 7.4-8.5 10.1-9.2.5-.1 1-.2 1.4-.3-1.5 0-3.2.1-4 .3-2.2.6-5.5 2.7-8.4 9.2zm-17.9-9.4c.2 0 1.4-.3 2.4 0 .1 0 .1 0 .2.1.2-.1 1-.4 1.7-.3.2 0 .4.1.6.2.2-.1.6-.3 1-.2.2 0 .3.1.5.2.2-.1.5-.1.8-.1.2 0 .3.1.5.2.1-.1.4-.2.6-.2.2 0 .3.1.5.2.1-.1.3-.2.5-.2.1 0 .2.1.4.2.1-.1.2-.2.4-.2.9.1 1.6 3.3 2.2 9.6.8 8.3.9 12.9.9 14.7v.3-.1c0-1.6.1-6.2.9-14.9.6-6.3 1.3-9.5 2.2-9.6.1 0 .3.1.4.2.1-.1.2-.2.4-.2s.4.1.5.2c.1-.1.3-.2.5-.2s.5.1.6.2c.2-.1.3-.2.5-.2.3 0 .6 0 .8.1.2-.1.4-.2.5-.2.4-.1.9.1 1 .2.2-.1.4-.2.6-.2.7-.2 1.5.2 1.7.3.1 0 .2 0 .2-.1 1-.3 2.2 0 2.4.1.9-.2 2.5-.2 3.9-.1-3.5-5.9-9.8-9.8-17.1-9.8-7.3 0-13.6 3.9-17.1 9.7 1.4-.1 3-.1 3.9.1zm30.4 0c-.4.1-.9.1-1.4.3-2.7.7-6.4 2.9-9.9 9.1-6.1 11.1-5.7 15.5-5.7 15.5h-.2v-.4.3h-.2s.5-4.5-5.7-15.5c-3.4-6.2-7.2-8.4-9.9-9.1-.5-.1-1-.2-1.4-.3-1.8 3.1-2.8 6.6-2.8 10.3 0 11 9 20 20 20s20-9 20-20c0-3.7-1-7.2-2.8-10.2zm-20.4 0s-.2.1-.2.2c1.1 1.2 1.8 5.5 2.2 9.3l.1.8c0-.3 0-.5-.1-.8-.8-9-1.8-9.5-2-9.5zm-2.4 9.4c2.3 4.2 3.7 7.4 4.5 9.8-.6-2.4-1.7-5.6-3.6-9.8-2.9-6.5-6.2-8.6-8.5-9.2-.8-.2-2.5-.3-4-.3.4 0 .9.1 1.4.3 2.8.7 6.8 2.9 10.2 9.2zm8.8-9.4c-.2 0-1.2.6-2 9.4 0 .3 0 .5-.1.7 0-.3.1-.5.1-.7.4-3.7 1.1-8.1 2.2-9.3l-.2-.1zm.7 0c-.3 0-1.5.9-2.5 9.4-.1.9-.2 1.8-.3 2.6.1-.8.2-1.7.4-2.6.8-5.2 1.7-8.4 2.8-9.3l-.1-.1c-.1 0-.2-.1-.3 0zm-5.4 9.4c.1.9.3 1.8.4 2.6-.1-.8-.2-1.7-.4-2.6-.9-8.6-2.1-9.4-2.5-9.4-.1 0-.2.1-.2.1l-.1.1c1.1.8 2.1 4 2.8 9.2zm-5.8-9.5c-.5-.1-.7.1-.8.2 1.6.8 3.5 3.2 5.3 9.3.8 3 1.4 5.4 1.9 7.5-.3-2.1-.8-4.6-1.5-7.6-1.8-7.7-3.9-9.2-4.9-9.4zm2.5.1c-.2 0-.3.1-.3.1l-.2.1c1 .7 2.3 3 3.5 9.3.3 1.6.5 3 .7 4.3-.2-1.3-.4-2.8-.6-4.3-1.2-8.4-2.6-9.5-3.1-9.5z"/><path fill="#F26258" d="M25.6 19.2c-2.3 4.2-3.7 7.4-4.5 9.8-.8 3.1-.9 4.8-.9 5.5v.3s-.5-4.5 5.7-15.5c3.4-6.2 7.2-8.4 9.9-9.1.5-.1 1-.2 1.4-.3 0 0 0-.1-.1-.1-.4 0-.9.1-1.4.3-2.7.6-6.7 2.8-10.1 9.1zm-5.6 15.6h.1zm13.2-25h-.1c-2.3.6-5.7 2.7-8.6 9.3-1.7 3.7-2.7 6.7-3.4 9-.8 3.5-.9 5.5-.9 6.2 0-.6.1-2.4.9-5.5.6-2.4 1.7-5.6 3.6-9.8 2.9-6.5 6.2-8.6 8.5-9.2.8-.2 2.5-.3 4-.3-1.5.1-3.1.1-4 .3zm-13 24.9v.1-.1zm-.2.1h.1zm10.6-24.9s-.1 0-.1-.1c-1.9.6-4.5 2.8-6.9 9.3-1.2 3.3-1.9 5.9-2.5 8.1-.8 4.1-.9 6.4-.9 7.1 0-.7.1-2.7.9-6.2.5-2.3 1.4-5.3 2.7-9 1.1-3.1 2.4-5.5 3.8-7.1 1-1.2 2.1-1.9 3.3-2.2 1-.3 2.1 0 2.1 0h.2l-.1.1.1-.1c-.2-.1-1.4-.3-2.4-.1-.1 0-.1 0-.2.1v.1zm-10.5 24.9h-.1.1zm.1-.1v.1-.1zm8-24.8c-1.6.7-3.6 3.1-5.4 9.3-.8 3-1.4 5.4-1.8 7.5-.6 3.4-.7 5.7-.8 6.9v.9c0-.8.1-3 .9-7.1.4-2.2 1-4.8 2-8.1 2.1-7.5 4.6-9.1 5.9-9.5.6-.2 1.2 0 1.5.2.1 0 .1.1.1.1v-.1c-.2-.1-1-.4-1.7-.3-.2 0-.4.1-.6.2l.1.1-.2-.1zm-8 24.8v.1-.1zm-.1.1h-.1zm6.7-25l-.2.1-.1-.1c-1.3.8-2.9 3.1-4.3 9.2-.5 2-.8 3.7-1.1 5.3-.7 4.7-.9 7.6-.9 9.1 0-1.2.2-3.4.8-6.9.3-2.1.8-4.6 1.5-7.6 1.7-7.7 3.8-9.2 4.8-9.4.5-.1.7.1.8.2l.1.1.2-.1-.1-.1c-.2-.1-.6-.3-1-.2-.2.2-.4.2-.5.4zm-6.8 24.4v-.1.1zm.2.1v.4-.2-.2zm0 .4v-1.1c0-1.5.2-4.4.9-9.1.2-1.5.5-3.3.9-5.2 1.5-8.1 3.2-9.2 3.9-9.4.3-.1.5 0 .6.1.1 0 .1.1.1.1l.2-.1h.1s-.1 0-.2-.1c-.2-.1-.5-.1-.8-.1-.2 0-.3.1-.5.2.1 0 .1.1.1.1l-.2-.1h.1-.1c-1 .7-2.3 3-3.5 9.3-.3 1.6-.5 3-.7 4.3-1 7.9-.9 11.2-.9 11.3v-.2zm-.2.1zm6.8-25l-.1.1zm-6.8 24.6v.2-.2zm0-.1zm1.1-10.8c.2-1.3.4-2.7.6-4.3 1.2-8.3 2.6-9.4 3.1-9.4.2 0 .3.1.3.1l.2.1h.1-.1l.2-.1-.1-.1c-.1-.1-.4-.2-.6-.2-.2 0-.3.1-.5.2l.1.1-.2.1h.1-.1c-1.1.9-2 4.1-2.8 9.3-.1.9-.3 1.8-.4 2.6-1 9.2-.9 12.9-.9 12.9.1-.1 0-3.4 1-11.3zm-1.1 11v.2-.2zm1.1-12.7c.1-.8.2-1.7.3-2.6 1-8.6 2.2-9.4 2.5-9.4.1 0 .2.1.2.1l.1.1h.1-.1l.2-.1-.1-.1c-.1-.1-.3-.2-.5-.2-.1 0-.2.1-.4.2l.1.1h-.2c-1.1 1.2-1.8 5.5-2.2 9.3 0 .3-.1.5-.1.7-1 10.5-.9 14.8-.9 14.8h-.2.1.1c.1 0 0-3.7 1-12.9zm-.9 13s-.1-4.3.9-14.8c0-.2 0-.5.1-.7.8-8.9 1.8-9.4 2-9.4 0 0 .2.1.2.2h.2l-.1-.1c-.1-.1-.2-.2-.4-.2-.9.1-1.6 3.3-2.2 9.6-.8 8.5-.9 13.1-.9 14.7v.7h.2zm-6.1-15.6c6.1 11.1 5.7 15.5 5.7 15.5v-.3c0-.6-.1-2.4-.9-5.4-.8-2.4-2.2-5.7-4.5-9.8-3.4-6.3-7.4-8.5-10.1-9.2-.5-.1-1-.2-1.4-.3 0 0 0 .1-.1.1.4.1.9.1 1.4.3 2.7.8 6.4 2.9 9.9 9.1zm5.8 15.6h.1-.1zm-4.6-15.6c1.8 4.2 2.9 7.4 3.6 9.8.8 3.1.9 4.8.9 5.4 0-.7-.1-2.7-.9-6.2-.7-2.3-1.7-5.3-3.4-9-2.9-6.6-6.3-8.7-8.6-9.3h-.1l.1.1-.1-.2c-.9-.2-2.5-.2-3.9-.1 1.5 0 3.2.1 4 .3 2.2.6 5.5 2.7 8.4 9.2zm4.5 15.5v.1-.1zm.1.1h.1zm-.1-.1v.1-.1zm.1.1h.1zm-1-7.5c-.5-2.2-1.3-4.8-2.5-8.1-2.3-6.5-4.9-8.7-6.9-9.3-.1 0-.1.1-.1.1v-.1c-.1 0-.2 0-.2-.1-1-.3-2.2 0-2.4.1l.1.1-.1-.2h.2s1.1-.2 2.1 0c1.1.3 2.2 1 3.3 2.2 1.4 1.6 2.7 4 3.8 7.1 1.3 3.7 2.2 6.7 2.7 9 .8 3.5.9 5.5.9 6.2 0-.7-.1-2.9-.9-7zm1 7.5h.1zm-.1-.1v.1-.1zm-10.4-24.8s.1 0 .1-.1c.3-.1.8-.4 1.5-.2 1.3.4 3.7 2 5.9 9.5.9 3.3 1.5 5.9 2 8.1.8 4.1.9 6.4.9 7.1v-.9c0-1.2-.2-3.4-.8-6.8-.4-2.1-1-4.5-1.9-7.5-1.7-6.2-3.7-8.6-5.3-9.3l-.1.1-.2-.1.1-.1c-.2-.1-.4-.2-.6-.2-.7-.2-1.5.2-1.7.3l.1.1zm10.6 24.2v.1-.1zm-.2.6v-.4.2.2zm-8-24.8c.2-.2.4-.3.9-.2 1 .2 3.1 1.7 4.8 9.4.7 3 1.2 5.5 1.5 7.6.6 3.4.7 5.6.8 6.8 0-1.5-.2-4.4-.9-9.1-.3-1.6-.7-3.3-1.1-5.3-1.4-6.2-3-8.5-4.3-9.2-.1 0-.1.1-.1.1l-.2-.1h.1-.1-.1s.1 0 .2-.1c-.2-.1-.4-.2-.5-.2-.4-.1-.9.1-1 .2l-.1.1h.1z"/><path d="M13.3 9.9l-.1-.1" fill="none"/><path fill="#F26258" d="M20 34.4v-.1.1zm-.2.2v-.3.1.2zm.2.2zm-6.8-25l.2.1.1-.1c.1-.1.3-.2.6-.1.7.2 2.4 1.3 3.9 9.4.4 1.9.6 3.7.9 5.2.7 4.7.9 7.6.9 9.1v.7-.1c0-1.3-.1-4.6-.9-10.6-.2-1.3-.4-2.8-.7-4.3-1.1-6.3-2.4-8.6-3.5-9.3h-.1.1l-.2-.1.1-.1c-.2-.1-.3-.2-.5-.2-.3.2-.6.3-.9.4zm6.6 24.8v.2-.2zm-5.1-24.6l.2-.1s.1-.1.3-.1c.6.1 1.9 1.2 3.1 9.4.2 1.6.4 3 .6 4.3.8 6 .9 9.4.9 10.6 0-1.4-.1-5.2-.9-12.4-.1-.8-.2-1.7-.4-2.6-.8-5.2-1.7-8.4-2.8-9.3h-.1.1l-.2-.1.1-.1c-.1-.1-.3-.2-.5-.2s-.5.1-.6.2c-.1 0-.1.1-.1.1l.3.3zm5.3 24.4v-.4.9h-.2s.1-4.3-.9-14.8l-.1-.8c-.4-3.7-1.1-8.1-2.2-9.3h-.2l.1-.1c-.1-.1-.2-.2-.4-.2s-.4.1-.5.2l-.1.1.2.1h-.1.1l.1-.1s.1-.1.2-.1c.3 0 1.5.9 2.5 9.4.1.9.2 1.8.3 2.6.8 7.1.9 11 .9 12.4v.6h.2c.1-.1.1-.3.1-.5zm-3.6-24.5h.2l.2-.2c.2 0 1.2.6 2 9.4 0 .3 0 .5.1.8 1 10.5.9 14.7.9 14.8h.2v-.9c0-1.8-.2-6.4-.9-14.7-.6-6.3-1.3-9.5-2.2-9.6-.2.1-.3.2-.5.4z"/></svg>