<!DOCTYPE svg [
	<!ENTITY ns_flows "http://ns.adobe.com/Flows/1.0/">
]><svg version="1.2" baseProfile="tiny" xmlns="http://www.w3.org/2000/svg" width="40" height="40" viewBox="0 0 40 40"><circle fill="#fff" cx="20" cy="20" r="20"/><path fill="#F26258" d="M12.5 9.2c.1.2.2.3.5.3.2 0 .5-.2.8-.5.3-.3.7-.7 1.3-1.1.5-.4 1.2-.8 2-1.1.8-.3 1.8-.5 3-.5.8 0 1.6.1 2.3.3.8.2 1.5.6 2.1 1.1.6.5 1.1 1.1 1.5 1.9.4.8.6 1.7.6 2.9 0 1.3-.3 2.4-.8 3.3-.5.9-1.1 1.8-1.8 2.5-.7.8-1.3 1.5-1.8 2.2-.6.7-.8 1.5-.8 2.4 0 .4.1.7.2 1 .1.3.4.4.8.4v.6h-4.7v-.6c.2 0 .4-.1.6-.2.1-.1.2-.5.2-1.1 0-1.1.3-2.2.8-3.1.5-.9 1.1-1.8 1.7-2.6.6-.8 1.2-1.6 1.7-2.4.5-.8.8-1.6.8-2.5 0-.9-.2-1.7-.7-2.3-.5-.6-1.4-.9-2.7-.9-.5 0-1 .1-1.5.2-.5.2-1 .4-1.4.7-.4.3-.8.6-1.1 1-.3.4-.4.8-.4 1.2 0 .4.1.7.3.8l-.6.5-3.1-4.1.2-.3zm5.1 20.8c0-.7.2-1.3.6-1.7.4-.5.9-.7 1.6-.7.6 0 1.1.2 1.6.7.4.5.6 1.1.6 1.7 0 .7-.2 1.2-.6 1.7-.4.4-1 .6-1.6.6-.6 0-1.1-.2-1.6-.6-.4-.4-.6-1-.6-1.7z"/></svg>