<!DOCTYPE svg [
	<!ENTITY ns_flows "http://ns.adobe.com/Flows/1.0/">
]><svg version="1.2" baseProfile="tiny" xmlns="http://www.w3.org/2000/svg" width="319" height="52" viewBox="52.6 15.7 319 52"><path fill="#fff" d="M70.6 16.9c1.7 0 3.2.1 4.6.4 1.4.3 2.5.7 3.5 1.4 1 .6 1.7 1.4 2.3 2.4.5 1 .8 2.2.8 3.6 0 2.2-.7 3.9-2.1 5.1-1.4 1.2-3.2 2-5.5 2.4l7 9.5c.2.3.5.5.9.6.3.1.6.1.9.1v.9h-9.9v-.9c.3 0 .6-.1.8-.2.2-.1.3-.2.3-.4s-.1-.4-.2-.6c-.1-.2-.4-.5-.6-.9l-5.8-7.8h-7.5v8.9c0 .3.1.5.3.7.2.2.6.2 1.2.2v.9h-9.1v-.9c1 0 1.5-.3 1.5-.9v-22.7c0-.6-.5-.9-1.5-.9v-.9h18.1zm-1.3 11.7c1.3 0 2.3-.1 3.2-.3.8-.2 1.5-.4 2-.8.5-.3.8-.7 1.1-1.2.2-.5.3-.9.3-1.5 0-.5-.1-1-.3-1.5-.2-.4-.6-.8-1.1-1.2-.5-.3-1.2-.6-2-.8-.8-.2-1.9-.3-3.2-.3h-9.1v7.4h9.1zm49.1-6.3c0-.4-.1-.6-.4-.8-.3-.2-.8-.3-1.6-.3h-17.1v6.2h10.3c.7 0 1.3-.1 1.6-.3.4-.2.6-.7.6-1.4h.9v7.8h-.9c0-.8-.2-1.3-.6-1.5-.4-.2-.9-.3-1.6-.3h-10.3v6.9h17.6c.5 0 1-.1 1.3-.4.3-.2.5-.6.5-1h.9v6.9h-.9c0-.5-.2-.8-.5-.9-.3-.1-.8-.1-1.3-.1h-24.6v-.9c.2 0 .5-.1.7-.2.2-.2.3-.4.3-.7v-22.6c0-.3-.1-.5-.3-.7-.2-.2-.4-.2-.7-.2v-.9h24.1c.7 0 1.3-.1 1.6-.3.3-.2.4-.5.4-.9h1v6.6h-1zm28.6-5.4c1.9 0 3.7.3 5.4.8 1.7.5 3.1 1.3 4.4 2.4 1.2 1.1 2.2 2.5 2.9 4.1.7 1.7 1.1 3.6 1.1 5.8s-.4 4.2-1.1 5.8c-.7 1.7-1.7 3-2.9 4.1-1.2 1.1-2.7 1.9-4.4 2.4-1.7.5-3.5.8-5.4.8h-17.5v-.9c.8 0 1.2-.3 1.2-.9v-22.6c0-.6-.4-.9-1.2-.9v-.9h17.5zm-2.1 22.1c1.7 0 3.1-.1 4.3-.4 1.2-.3 2.3-.7 3.1-1.4.8-.7 1.4-1.6 1.8-2.7.4-1.1.6-2.6.6-4.3 0-1.7-.2-3.2-.6-4.3-.4-1.1-1-2-1.8-2.7-.8-.7-1.8-1.2-3.1-1.4-1.2-.3-2.7-.4-4.3-.4h-8.2v17.6h8.2zm64.3-21.2c-.7 0-1.2.2-1.5.7-.3.5-.5.9-.7 1.2l-9.3 19.5c-.3.7-.6 1.2-.8 1.6-.2.4-.3.7-.3.9 0 .2 0 .3.1.4l.3.3v.9h-8v-.9c.3-.1.5-.4.5-.7 0-.2-.1-.5-.4-1l-1-1.9-9.5-19.6c-.2-.4-.4-.6-.7-.8-.3-.2-.8-.3-1.4-.5v-.9h9.4v.9c-.2 0-.5.1-.7.2-.2.1-.3.3-.3.7 0 .4.1.8.4 1.4.3.6.7 1.3 1.1 2.1l6.8 13.8 6.6-13.6c.4-.9.8-1.6 1.2-2.3.4-.7.6-1.2.6-1.4 0-.5-.5-.8-1.5-.8v-.9h9.2v.7zm7 24.6c.9 0 1.4-.3 1.4-.9v-22.8c0-.6-.5-.9-1.4-.9v-.9h8.8v.9c-.9 0-1.4.3-1.4.9v22.8c0 .6.5.9 1.4.9v.9h-8.8v-.9zm22.3-7.4l.5.2c0 .3.1.6.2.8.2.4.7.8 1.4 1.2.7.4 1.5.7 2.5 1 .9.3 1.9.5 2.9.7 1 .2 1.9.3 2.7.3.6 0 1.4 0 2.3-.1.9-.1 1.9-.3 2.8-.5.9-.3 1.7-.6 2.4-1.1.7-.5 1-1.1 1-1.8s-.3-1.3-.9-1.7c-.6-.4-1.4-.6-2.4-.8-1-.2-2.1-.3-3.4-.3-1.3 0-2.6-.1-3.9-.2-1.3-.1-2.6-.3-3.9-.5-1.3-.2-2.4-.6-3.4-1.2-1-.5-1.8-1.3-2.4-2.2-.6-.9-.9-2.2-.9-3.7 0-1 .3-2 .8-3s1.3-1.9 2.3-2.6c1.1-.8 2.4-1.4 4-1.9s3.5-.7 5.7-.7c1.9 0 3.5.1 4.9.4 1.4.3 2.6.5 3.6.8l2.5.8c.7.3 1.3.4 1.7.4.5 0 .8-.1 1.1-.3l.6.4-3.6 6.2-.5-.2c-.1-.5-.2-.8-.4-1.1-.3-.4-.8-.8-1.4-1.2-.6-.4-1.4-.7-2.3-1-.9-.3-1.8-.5-2.8-.7-1-.2-2-.3-3.1-.3-.8 0-1.6.1-2.4.2-.8.1-1.6.3-2.2.5-.7.2-1.2.5-1.7.9-.4.4-.7.9-.7 1.4 0 .8.3 1.4.9 1.8.6.4 1.4.7 2.4.9 1 .2 2.1.3 3.4.4l3.9.2c1.3.1 2.6.3 3.9.5 1.3.2 2.4.6 3.4 1.2 1 .5 1.8 1.3 2.4 2.2.6.9.9 2.1.9 3.6 0 1.7-.5 3.1-1.5 4.2s-2.2 2-3.6 2.6c-1.4.6-3 1-4.7 1.3-1.7.2-3.2.3-4.7.3-2 0-3.7-.1-5-.3-1.4-.2-2.5-.5-3.4-.8-.9-.3-1.6-.6-2.1-.8-.5-.2-1-.4-1.4-.4-.2 0-.5.1-.7.4l-.7-.4 3-6zm35.4 7.4c.9 0 1.4-.3 1.4-.9v-22.8c0-.6-.5-.9-1.4-.9v-.9h8.8v.9c-.9 0-1.4.3-1.4.9v22.8c0 .6.5.9 1.4.9v.9h-8.8v-.9zm43.5-25.2c2 .6 3.8 1.4 5.5 2.5 1.7 1.1 3 2.5 4.1 4.3 1.1 1.7 1.6 3.8 1.6 6.1 0 2.4-.5 4.4-1.6 6.1-1.1 1.7-2.4 3.1-4.1 4.3-1.7 1.1-3.5 1.9-5.5 2.5-2 .5-4 .8-5.9.8-1.9 0-3.9-.3-5.9-.8-2-.5-3.8-1.3-5.5-2.5-1.7-1.1-3-2.5-4.1-4.3-1.1-1.7-1.6-3.8-1.6-6.1 0-2.4.5-4.4 1.6-6.1 1.1-1.7 2.4-3.1 4.1-4.3 1.7-1.1 3.5-2 5.5-2.5 2-.6 4-.8 5.9-.8 1.9-.1 3.9.2 5.9.8zm-9.9 4.5c-1.3.4-2.5 1-3.6 1.8s-1.9 1.7-2.6 2.8c-.7 1.1-1 2.4-1 3.8s.3 2.7 1 3.8c.7 1.1 1.5 2.1 2.6 2.8 1.1.8 2.3 1.4 3.6 1.8 1.3.4 2.7.6 4 .6 1.3 0 2.7-.2 4-.6 1.3-.4 2.5-1 3.6-1.8s1.9-1.7 2.6-2.8c.7-1.1 1-2.4 1-3.8s-.3-2.7-1-3.8c-.7-1.1-1.5-2.1-2.6-2.8-1.1-.8-2.3-1.4-3.6-1.8-1.3-.4-2.7-.6-4-.6-1.4-.1-2.7.1-4 .6zm30.5 20.7c.7 0 1-.3 1-.9v-22.8c0-.6-.3-.9-1-.9v-.9h9v.9c-.3 0-.4.2-.4.5s.4.7 1.1 1.4l15.1 14.9v-15.9c0-.6-.5-.9-1.4-.9v-.9h8v.9c-.7 0-1 .3-1 .9v22.8c0 .6.3.9 1 .9v.9h-8.5v-.9c.5 0 .7-.2.7-.5 0-.2-.3-.6-.8-1.2l-16.1-15.9v16.6c0 .6.4.9 1.2.9v.9h-7.9v-.8zm-282.7 16.8c0-3.6 1.7-6.2 1.9-6.4l.3-.4h-4v13.6h4.1l-.3-.4c-.4-.2-2-2.8-2-6.4zm17 4h-.2c-.3.1-.7.1-.9.2-.2 0-.4.1-.7.1.3-.1.7-.3.9-.6.2-.2.3-.6.3-1v-2.2c0-1.1 0-1.2.1-1.3l.1-.1c.1-.1.2-.2.2-.3 0-.3-.9-.9-1.1-.9-.2 0-.2.1-.3.2l-.1.1h-.2v-2.8l.1-.1c.2-.2.3-.3.3-.4 0-.3-.8-.9-1.1-.9-.2 0-.3.1-.5.3 0 0-.1.1-.2.1h-2.4c-.2 0-.3 0-.5-.1l-.2-.1c-.4-.1-.5-.2-.6-.2-.2 0-.4.2-.4.4 0 .1 0 .1.1.3v.1c0 .1.1.8.1 1.6v1.9c-.1 0-.3-.1-.5-.2-.3-.1-.3-.1-.4-.1-.2 0-.4.1-.4.4 0 .1 0 .3.1.4v5.4c-.3-.2-.5-.4-.7-.5-.3-.4-.3-.5-.3-2 0-.3 0-1.2.1-1.4.3-.1.5-.2.5-.4 0-.3-.7-1.2-1-1.2-.2 0-.3.1-.6.5l-.1.1c-.1.1-.1.1-.3.1h-1.9v.3c0 .1 0 .2.1.3l.3-.2c0 .1.1.2.3.2h1.3v.9c0 1.9 0 2-.3 2.2-.5.5-1.1.8-1.2.8-.4.1-.6.2-.6.5 0 .1.1.3.4.6l.1.1c.3.4.4.6.7.6.3 0 .4-.3.5-.6v-.1c.1-.2.8-1.1 1.1-1.5 0 0 0 .1.1.1.1.1.1.3.1.3 1 1.8 3.2 2.2 7.2 2.2 0 0 1.6 0 1.8-.1.3-.1.4-.3.6-.7l.3-.4.1-.1c.2-.2.2-.2.2-.3-.1-.2-.1-.5-.4-.5zm-7-.5v-4.4s0-.1.2-.1h4.7c0 .2.1 1.5.1 2 0 2 0 2-.6 2h-.6c.1-.1.2-.3.2-.5v-1.8h.1c.2-.2.3-.3.3-.5 0-.4-1-1-1.2-1-.2 0-.3.1-.6.4h-.6c-.2 0-.4-.1-.5-.1l-.2-.1c-.5-.2-.5-.2-.6-.2-.2 0-.4.1-.4.4 0 .1 0 .2.1.4v2.7c0 .6.4.7.6.7.4 0 .8-.3.8-.8v-.1h.7c0 .4.2.6.6.6h.2v.1c0 .2.2.3.6.5h.1l.4.3c.1.1.1.2.3.3-.8.1-1.7.1-2.4.1-1.3 0-2.2-.1-2.8-.3.2.1.5-.2.5-.6zm2.8-6.8h.7v1.5h-.8v-.6c.1-.5.1-.9.1-.9zm.8-.9h-1.2l-.5-.2c-.2 0-.4.2-.4.4 0 0 0 .1.1.4v1.8h-.6v-3.1h2.6v.7zm-1 5.2v.8h-.7c-.1-.1-.1-.7-.1-1.1v-.1h.8v.4zm-7.3-6.1c.5.4.7.7 1.2 1.5.4.7.5.9.9.9s.6-.3.6-.6c0-.4 0-1.2-1.4-2.1-.6-.4-1.3-.5-1.4-.5-.3 0-.3.2-.3.3 0 0 0 .1.4.5zm25.6 3.7c-.3 0-.4.2-.7.8-.1.1-.1.1-.6.1h-2.7v-2.1h3.3c.5 0 1 0 1-.4s-1.6-1.3-1.7-1.3c-.2 0-.4.2-.7.7-.1.1-.1.2-.1.2h-1.7v-1.4c.2-.2.3-.3.3-.5 0-.4-.3-.5-.5-.5l-.4-.1c-.6-.1-.7-.2-.8-.2-.2 0-.4.2-.4.3 0 .1 0 .2.1.4v.1c.1.3.1 1.3.1 1.7 0 .1 0 .1-.1.1h-1.6c-.7 0-1.2 0-1.8-.1h-.6c-.2 0-.3.1-.3.3l.1.2.3.4c0 .1.1.2.3.2h3.7v.4c0 .6 0 1.6-.1 1.7h-5.1c-.2 0-.3.1-.3.3 0 .1.1.2.1.2l.2.3c0 .1.1.2.3.2h4.3c0 .3-.4 2-.9 3.3-.2.5-.2.5-.8.5-.3 0-1.4-.1-1.6-.1-.3-.5-.5-.5-.6-.5-.2 0-.3.1-.3.3 0 .1 0 .1.2.7 0 .2.1.3.1.4v.1c.2.5.2.7.6.7.1 0 .3-.1.6-.2.1 0 .2-.1.2-.1.3-.1 2.2-.3 3.4-.4.7-.1 1.2-.1 1.5-.2.1 0 .5-.1.9-.1.4-.1.9-.2 1-.2h.1l.3.6c.2.5.3.8.8.8s1-.5 1-1.2-1-2.2-2.9-3.3c0 0-.5-.3-.7-.3-.2 0-.3.1-.3.3 0 .1 0 .2.4.5.1 0 .1.1.1.1.4.4 1 1.3 1.1 1.6-.2 0-2.6.2-4.2.2h-.2c.1-.1.2-.4.3-.6l.2-.3c.3-.5 1-1.8 1.1-1.9l.1-.1c.3-.3.4-.4.4-.6l-.1-.3h4.8c.5 0 1 0 1-.4s-1.3-1.3-1.5-1.3zm4.2-5c.2.3 1.9 2.8 1.9 6.4 0 3.6-1.7 6.2-1.9 6.4l-.2.4h4.1v-13.6h-4l.1.4zm12.8 9.2c0-.2.1-.8.2-1.3l.1-.7c0-.4-.3-.4-.3-.4-.2 0-.3.2-.4.5-.1.2-.3.8-.4.9 0 0-.1-.3-.1-.6 0-1.1.9-3.1 1-3.3.3-.4.3-.5.3-.7 0-.6-.6-1.9-1.4-1.9-.2 0-.4.1-.4.3 0 .1 0 .1.1.3 0 .1.1.5.1.9 0 .2 0 .5-.2 1.3-.5 1.7-.6 2.1-.6 2.9 0 1.3.6 3.8 1.7 3.8.4 0 .7-.3.7-.7 0-.2-.1-.5-.2-.7-.1-.3-.2-.5-.2-.6zm4.6-5c.6 0 1.9-.1 1.9-.9 0-.4-.4-.8-.8-.8-.2 0-.3 0-.7.2-.2.1-.8.2-1.4.2-.2 0-.5 0-.8-.1-.1 0-.2 0-.2-.1h-.2c-.2 0-.3.2-.3.3 0 .3 1 1.2 2.5 1.2zm1.7 4.8h-.6c-.3 0-.5 0-.6.1h-1.1c-.5 0-1 0-1.3-.2h-.1c-.2-.1-.3-.2-.4-.2-.1 0-.3.1-.3.4 0 .2.2.5.5.8.3.3.9.7 2.2.7 1.6 0 2.5-.1 2.5-.9 0-.2-.1-.7-.8-.7zm14.7 1.3c-.2-.2-.3-.6-.3-.8 0-.4 0-.7-.3-.7s-.3.2-.4.5c-.2.6-.4 1.1-.5 1.3-.2.2-1.5.3-2.4.3-1 0-1-.1-1-1 0-.7 0-.9.1-1 .3-.2.4-.3.4-.5s-.2-.4-.4-.5c-.1 0-.2-.1-.6-.3h-.2c.2-.2.3-.5.3-.8v-.7c0-.6-.1-1.3-.1-1.5v-.4c.1.3.3.6.3.9.1.3.2.8.6.8.4 0 .8-.4.8-.9 0-.7-.5-1.1-1.6-1.9-.1 0-.1-.1-.1-.1h1c.5 0 .9 0 1-.3v4.8l-.4-.2h-.3v.3c0 .1 0 .2.1.3.3.5.4.7.5 1.1.2.6.3 1 .7 1 .4 0 .7-.4.7-.9s-.4-1-.9-1.3c.6 0 .8-.6.9-.9h2.2v.1c0 .3.1.8.6.8.3 0 .8-.3.8-1.1v-3c0-1.3.1-1.6.1-1.6s0-.1.1-.1c.2-.2.2-.3.2-.4 0-.4-1.1-1.1-1.3-1.1-.2 0-.3.2-.5.4v.1c-.1.1-.2.1-.2.1h-2c-.1 0-.2 0-.4-.1 0 0-.1-.1-.2-.1-.4-.2-.5-.3-.7-.3-.2 0-.4.2-.4.4 0 .1.1.5.1.5 0 .3 0 .7.1 1.1-.1-.4-1.1-.9-1.2-.9-.2 0-.3.1-.5.4l-.1.1h-.2v-.6l.2-.2c.2-.2.3-.3.3-.4 0-.5-1.5-.8-1.5-.8-.3 0-.4.2-.4.3 0 .1 0 .2.1.4v1.2h-.1c-.5 0-1.4 0-1.9-.1h-.7v.3c0 .1 0 .2.1.3l.3.3c0 .1.1.2.3.2h1.7c-.1.3-.7 1.4-1.4 2.5-.1.1-.2.3-.4.6-.5.7-.5.7-.5.8v.3h.3c.2 0 .9-.2 2.5-2.4v2.3c0 .4.2.6.4.7l-.1.3v2.2c0 1.4.3 1.9 3.2 1.9 3.5 0 3.6-1.2 3.6-1.4 0-.2-.2-.4-.4-.6zm.4-4.3h-2.3v-.8h2.3v.8zm-2.5-2.1v-.4h2.3v.8h-2.4c.1 0 .1-.2.1-.4zm2.4-1.3h-2.5v-.8h2.4v.4c.2.2.2.4.1.4zm.6 5.6s-.6-.2-.7-.2h-.3v.2c0 .1.1.2.3.4.5.5.8 1.2.9 1.4.3 1 .4 1.5 1.1 1.5.3 0 .7-.3.7-.9 0-.7-.6-1.9-2-2.4zm-8.6-.3c-.3 0-.3.3-.4.6-.2 1-.7 1.5-.8 1.6-.5.5-.7.7-.7 1 0 .1.1.6.7.6 1.5 0 1.6-2.2 1.6-2.7 0-1.1-.3-1.1-.4-1.1zm25.3 2.2c-1.6-1-2-1.7-2-1.9.1 0 .2-.1.3-.2.1 0 .3-.1.4-.3.2-.1.6-.3.6-.4.4-.1.6-.1.6-.4 0-.2-.5-.6-.9-.9.2-.1.4-.3.4-.6v-2l.1-.1c.2-.2.3-.3.3-.4 0-.4-1.2-.7-1.2-.7-.2 0-.4.2-.5.4v.1h-1.5c.4-.3.9-.7 1-.8.3-.1.5-.2.5-.5 0-.1-.1-.3-.2-.4 0 0-.8-.5-1-.5-.2 0-.3.2-.4.3-.1.1-.1.1-.3.1h-1v-.1c0-.3-1.1-1-1.2-1-.1 0-.3.1-.3.3v.4c0 .2-.4 1.1-1.4 2.2-.1.1-.2.3-.4.5-.3.3-.5.5-.5.6-.1-.1-.2-.2-.3-.2h-.1c.1-.1.2-.4.5-.8.2-.3.5-.8.7-.9.4-.2.5-.3.5-.5s-.1-.3-.6-.6l-.3-.2c-.6-.4-.6-.4-.7-.4-.4 0-.4.4-.4.7 0 .6-1.4 3.6-2.5 5.2-.3.4-.3.5-.3.6v.3h.3c.4 0 1.2-.9 1.6-1.4v2.4c0 1.2 0 1.7-.1 3.7v.5c0 .2.1.5.6.5.9 0 .9-.8.9-1.1v-7s0-.1.1-.1c.1-.1.2-.2.2-.3v.1h.3c.2 0 .4-.1.9-.5v2c0 .1 0 .6.5.6.7 0 .9-.5.9-.8h.7c-.3.4-1.4 1.4-2.9 2.3-.1.1-.3.2-.3.4 0 .1.1.3.3.3.4 0 1.6-.6 1.8-.7.1-.1.3-.2.6-.3.2-.1.6-.3.8-.5-.4.4-1.6 1.5-3.1 2.2-.2.1-.4.2-.4.4 0 .1.1.3.3.3.2 0 1.7-.4 3.1-1.3l.4-.3.2-.1-.1.1c-.9.9-1.7 1.6-3.4 2.7l-.3.2c-.5.3-.5.3-.5.5 0 0 0 .3.3.3.4 0 1.5-.5 2.4-1v.2c0 .1.1.3.4.4.1.1.4.3.4.5 0 .3.1.5.6.5 1.4 0 1.9-1.4 1.9-2.6 0-.4-.1-.9-.2-1.3.8 1.8 1.8 2.8 2 2.8.1 0 .2-.1.4-.3l.1-.1c.3-.3.6-.3.8-.3.3 0 .3-.3.3-.3-.2-.2-.3-.2-.7-.5zm-3.1-4.5h1.2v.1c0 .1 0 .3.2.5 0 .1 0 .1-.1.2-.1.3-.5.9-.7 1.2-.2-.4-.6-1.5-.6-2zm1.3-.9h-1.6v-1.1h1.6v1.1zm-2.7-2c0 .1-.1.1-.1.1h-1.6l.4-.4.2-.2c.2-.2.2-.2.4-.2h1.2c-.2.2-.4.6-.5.7zm-1.6.9h1.4v1.1h-1.3s-.1-.3-.1-1v-.1zm2.2 3.6s-.1-.1-.1-.2c-.1-.1-.3-.4-.3-.5l.5-.5c.1.7.3 1.4.5 2-.2-.2-.4-.5-.6-.8zm-2.1 3.7c.6-.4 1.2-.7 1.6-1 0 0 .1 0 .1-.1 0 .9-.1 1.3-.4 1.3-.1 0-.5-.1-.7-.1-.3-.1-.4-.1-.4-.1h-.2zm19.7-1.9c-.1 0-.1 0-.8.4-.2.1-.4.2-.5.3-.9.4-1.8.7-2.7.7-1.5 0-1.8-.9-1.8-2.3 0-1.1.4-4 .5-4.7 0 0 0-.1.1-.2.1-.3.2-.5.2-.6 0-.4-.6-1.6-1.5-1.6-.2 0-.4.2-.4.4 0 .1 0 .1.1.3l.1.2c.1.1.1.3.1.5 0 .3-.1 1.2-.2 1.9-.3 2.6-.3 2.9-.3 3.7 0 2.7.9 3.9 2.8 3.9 2.5 0 4.7-2.2 4.7-2.5-.1-.3-.2-.4-.4-.4zm10.8-4.1l-.1.2.1.1c.1.1.3.1.3.1.1 0 .4 0 .5-.1.5-.1 1.3-.1 1.7 0l-.2.2c-.3.2-.4.3-.4.5 0 .1.1.3.3.3.1 0 .2 0 .5-.1h.1c.5-.2.7-.2.9-.2h.7c.6 0 .6-.4.6-.6 0-.7-1-1.2-2.5-1.2-1 .1-2.2.5-2.5.8zm4 5.2h-1.4c-.7 0-2.2-.1-2.5-1.3-.1-.3-.1-.5-.4-.5-.4 0-.4.6-.4.8 0 1.1.7 2.5 4.2 2.5 1 0 1.9 0 1.9-.7-.1-.5-.9-.8-1.4-.8zm-2.7-7.3c0-.2 0-.7-.7-.7h-.4c-.2 0-.7-.2-.9-.3v-.1c.1-.1.1-.2.1-.3 0-.3-.6-1-1.3-1-.5 0-.8.2-.8.6 0 .1.1.3.4.6 0 .1.1.3.1.7 0 .2 0 .7-.1.9-.1 0-.5.1-.8.1-.4 0-.9-.1-1.1-.1h-.1c-.1-.1-.2-.1-.3-.1-.1 0-.3.1-.3.3 0 .3.4.7.8.9.6.3 1.1.3 1.5.3-.1.5-.6 2.5-1.7 4.6-.4.8-.5 1-.5 1.2 0 .5.2.8.6.8.5 0 1-.2 1.9-2.9v-.1c.3-.8.3-.9.9-3.7v-.1s.2-.1.4-.1c1.2-.1 2.3-.6 2.3-1.5zm-2.3.3v-.4c.1 0 .3.1.4.2-.1 0-.2.1-.4.2zm16.5 3.3c0-3.5 1.5-6 1.9-6.4l.3-.4h-4v13.6h4l-.3-.4c-.2-.2-1.9-2.8-1.9-6.4zm16.9 3.8c-.3-.1-.7-.2-1.8-.8-1.7-1-2.8-2.4-3.2-2.9h4.1c.5 0 1 0 1-.5 0-.4-1.2-1.2-1.5-1.2-.4 0-.5.3-.8.7-.1.2-.1.2-.6.2h-2.6v-1.9h3.5c.5 0 1 0 1-.5 0-.4-1.3-1.2-1.5-1.2-.2 0-.4.2-.7.6-.2.2-.2.2-.7.2h-1.5v-1.1c0-.3 0-.3.1-.4l.1-.1c.2-.2.3-.3.3-.4 0-.6-1.4-.7-1.4-.7-.4 0-.5.2-.5.4 0 .1 0 .2.1.5v.1c.1.4.1 1.2.1 1.5v.1h-1.6c-.7 0-1.2 0-1.8-.1h-.9v.3l.1.3.2.3c0 .1.1.2.3.2h3.5v2h-2.7c-.7 0-1.2 0-1.8-.1h-.9v.3l.1.3.2.3c0 .1.1.2.3.2h4c-.4.7-2.2 3.4-4.4 4.7-.1.1-.3.2-.3.4v.3h.3c.9 0 3.4-1.6 5.2-4 0 .5-.1 1.7-.1 2.7v1.4c0 .7.5.8.6.8.3 0 1-.3 1-1v-4.4c1.3 2.5 3.6 4.3 4.2 4.3.2 0 .3-.1.4-.3.1-.1.3-.3.5-.4h.1c.5-.2.6-.2.6-.4-.2-.6-.3-.7-.6-.7zm15.3-.3c-.6-.1-1-.3-1.2-.4-1.6-.6-3.3-2.5-3.6-3h3.9c.5 0 1 0 1-.4 0-.3-1.2-1.2-1.4-1.2-.2 0-.3.1-.8.7-.1.1-.1.1-.6.1h-1.3l1.5-1.3h.1c.3-.1.5-.2.5-.4 0-.4-1.1-1-1.5-1.1h1.4c.5 0 1 0 1-.4 0-.3-1.2-1.1-1.4-1.1-.2 0-.3.2-.6.5l-.2.2h-2.2v-.2c0-.3.1-.4.1-.5.2-.2.3-.3.3-.5 0-.5-1.6-.8-1.6-.8-.1 0-.3.1-.3.4 0 .1 0 .2.1.5 0 .1.1.2.1.4v.6h-1.5c-.7 0-1.2 0-1.8-.1h-.6c-.2 0-.3.1-.3.3l.1.2.3.4c0 .1.1.2.3.2h.2l-.1.2c0 .1 0 .1.2.3l.2.3.1.1.4.7c.3.6.4 1 .6 1.1h-3.6v.3c0 .1 0 .2.1.3l.3.3c.1.1.2.2.3.2h3.7c-.2.5-1.6 2.4-4.1 4.1-.7.4-.7.5-.7.6 0 .2.1.3.4.3.1 0 .2 0 .9-.3 2.6-1.3 3.8-2.9 4.3-3.5.1-.1.1-.2.2-.2 0 .5 0 2.8-.1 3.4v1.1c0 .7.4.8.6.8.9 0 .9-.9.9-1.2v-4.3c1.5 2.8 4 4.2 4.2 4.2.2 0 .3-.1.4-.2l.4-.4s.1-.1.2-.1c.5-.2.6-.3.6-.5.1-.4 0-.6-.4-.7zm-7.5-5c0-.7-.6-1.2-1.4-1.7h-.1c-.3-.2-.5-.3-.6-.4h2.8v2.9h-1.1c.3-.2.4-.4.4-.8zm2.1.6v-2.7h1.8c-.3.1-.3.4-.3.5 0 .4-.5 1.4-.9 1.9-.2.3-.4.4-.6.4h-.1c.1.1.1-.1.1-.1zm8.3-5.5c.2.3 1.9 2.8 1.9 6.4 0 3.6-1.7 6.2-1.9 6.4l-.3.4h4.1v-13.6h-4l.2.4zm18.4 8.3c-.2-.1-.2-.1-.3-.5l-.1-2.1c0-.4 0-.4.3-.6.5-.2 1.5-.7 1.5-1.5s-.7-.8-1.3-.8c-.2 0-.5-.1-.5-.2v-.1c.1-.2.2-.3.2-.5 0-.7-1-.9-1.4-.9-.4 0-.7.2-.7.5 0 .2.1.3.4.5l.1.1c.2.2.2.5.2 1.4v.6h-.5c-.5 0-1-.1-1.4-.2h-.1c-.2-.1-.3-.2-.4-.2-.2 0-.3.1-.3.3 0 .3.6 1.4 2.2 1.4h.5v.1c0 .4.1 1.8.1 1.8v.7h-.1c-2.7 0-3 1.4-3 1.9 0 .9.8 1.6 1.9 1.6.9 0 1.8-.5 2.2-1.4 0 0 0-.1.1-.2l.1-.3c.2.1.6.4 1 .8.3.4.4.5.7.5.4 0 .7-.4.7-.8.1-.8-1.1-1.4-2.1-1.9zm-.4-4.7v-.1c.1 0 .3.1.4.2 0 .1-.2.2-.4.2v-.3zm-1.1 5.8c0 .3-.6.8-1.3.8-.3 0-.6-.1-.6-.3 0-.2.5-.6 1.2-.6.6 0 .7 0 .7.1zm-3.9-2.6c0-.3-.2-.4-.3-.4-.1 0-.3 0-.8 1.5v.1c0 .1-.1.3-.1.3 0-.1-.1-.3-.1-.5 0-1 .2-1.8.5-2.6 0-.1.1-.4.2-.7.4-1.2.5-1.4.5-1.5 0-.4-.7-1.8-1.7-1.8-.3 0-.5.1-.5.4l.2.5.1.1c.2.4.3.6.3 1 0 .3 0 .4-.3 1.5l-.1.5c-.3 1.3-.4 1.9-.4 2.7 0 2.1.7 3.6 1.6 3.6.4 0 .7-.3.7-.8 0-.1 0-.3-.1-.7 0-.2-.1-.5-.1-.6 0-.2.1-.7.2-1.3.1-.5.2-1.1.2-1.3zm18.1-.4c0-3.5 1.5-6 1.8-6.4l.3-.4h-4v13.6h4l-.3-.4c-.1-.2-1.8-2.8-1.8-6.4zm16.3-1.5c-.1 0-.2-.1-.2-.1-2.6-1-4.1-3-4.4-3.5.1-.1.2-.1.2-.4 0-.3-.1-.4-.5-.5-.6-.4-.9-.5-1.1-.5l-.3.1v.2c-.1.2-.4.8-.4.9-.1.1-1.8 3.2-4.3 4.9-.3.2-.4.4-.4.5 0 .2.1.3.3.3.2 0 .5-.1 1.2-.6h.1c.5-.3 1-.7 1.4-1 0 .1.1.2.1.2l.3.3c.1.1.2.2.3.2h3.9c.3 0 .8 0 .8-.4 0-.3-1-1.1-1.3-1.1-.3 0-.4.1-.7.6 0 .1-.1.1-.1.1h-1.2c-.4 0-1.1 0-1.4-.1h-.2c.9-.8 1.7-1.8 2.3-2.6l.1-.2c.1-.1.1-.2.2-.2.5.8.6 1 1.5 2 .8 1 2.8 2.6 3.2 2.6.2 0 .3-.1.4-.2.4-.3.4-.3.6-.4h.1c.3-.1.6-.1.6-.4-.1-.4-.3-.4-1.1-.7zm-3.3 1.7l-.5.2-.2.1c-.2.1-.3.1-.4.1h-5.1v.2c0 .1 0 .2.1.3l.3.3c0 .1.1.2.3.2h4.5c0 .2-.2.8-1.3 3.1l-.4.9c0 .4.4.7.8.7.7 0 .8-.4 1.1-1.3.1-.4 1.2-2.9 1.2-3.1h.2c.4-.1.5-.3.5-.5 0-.4-.8-1.2-1.1-1.2zm7-6.7c.3.5 1.9 2.9 1.9 6.4 0 3.6-1.7 6.2-1.9 6.4l-.3.4h4v-13.5h-4l.3.3zm22.8 6.4c-.5-.5-.6-.6-.8-.6-.3 0-.5.3-.7.7-.1.2-.1.2-.5.2l-.9.1h-.1c0-.1-.2-1-.2-1.2v-.1h.2l2.1-.1c.5 0 .9-.1.9-.4 0-.4-1-.9-1.3-.9-.3 0-.4.2-.6.5 0 .1 0 .1-.5.1l-.7.1h-.2l-.1-1v-.1h.2l2.3-.1c.5 0 .9-.1.9-.5s-.8-.9-1.2-1v-.1c0-.8-.7-1.2-1.1-1.3-.5-.2-.6-.2-.7-.2h-.3v.4c-.2-.1-.4-.1-.6-.1l-.8-.1c-.3 0-.5.2-.5.4 0 .1 0 .1.1.5l.2 1.4h-2.1v.1c0 .1 0 .3.1.3l.3.4s.1.1.3.1c0 0 .3 0 .5-.1.3 0 .8-.1.9-.1 0 .1.1.8.1 1v.1l-1.3.1h-.3v-.1c0-.3-1-1-1.2-1-.2 0-.3.1-.4.2h-.8c.1-.5.3-1.2.4-1.6l.1-.2h1.5c.5 0 1 0 1-.4s-.9-1.1-1.3-1.1c-.2 0-.4.2-.6.5-.1.2-.1.2-.6.2h-.8c-.6 0-1.2 0-1.8-.1h-.6c-.2 0-.3.1-.3.3l.1.2.3.4c0 .1.1.2.3.2h.2c.3 0 .8-.1 1 0 0 .6-.8 3.8-1.8 5.6 0 0-.1.2-.2.3-.2.3-.3.4-.3.5 0 .1.1.3.3.3.1 0 .3-.2.4-.3.5-.4 1-1.1 1.3-1.6.1.2.2.4.2.6l.2.5c.2.3.5.4.7.4-.2.5-.9 2-2.1 3.1l-.3.3c-.4.4-.4.4-.4.5 0 .2.1.3.3.3.1 0 .1 0 .6-.3.1-.1.2-.1.3-.1 1-.6 2.6-2.3 3.5-4.8l.2.3c0 .1.1.2.3.2 0 0 .3 0 .6-.1h.4c.6 0 1.2-.1 1.3-.1.1 0 .1 0 .2.4 0 .1.1.2.1.4.1.2.2.7.2.8 0 .1 0 .1-.8.7-1.1.8-2.3 1.6-3.5 2.2-.5.2-.5.4-.5.4 0 .2.1.3.3.3.1 0 1.4-.4 2.5-.9.7-.3 1.7-.8 2.6-1.4 0 0 .1 0 .1-.1 0 0 .1.1.1.2.7.9 1.8 1.9 2.5 1.9.4 0 .7-.3.7-.7l-.2-.7-.1-.3-.1-.9v-.2c0-.8 0-.8-.1-.9h-.2c-.2 0-.3.2-.3.4v.1c-.1.3-.3.8-.4 1-.2-.1-.8-.7-.8-.9 0-.1.2-.3.6-.6l.1-.1s.1 0 .2-.1h.1c.3-.1.4-.3.4-.5s-.2-.5-.5-.7h.5c.6 0 .9-.1.9-.5.2-.6.1-.6-.2-.9zm-2.2 1.1c-.2.3-.4.5-.4.6-.1-.1-.1-.4-.1-.6h.5zm-6.2-.7c-.3-.4-.8-.6-1-.8l-.1-.1c.1-.2.4-.9.4-1.1l.1-.1h1.1c-.2.3-.4 1.5-.5 2.1zm1.6-.7c0-.1 0-.3.1-.4 0-.1 0-.2.1-.3l.2.2c0 .1.1.2.3.2 0 0 .3 0 .5-.1.4 0 .9-.1 1.1-.1v.1c0 .2.1 1.1.2 1.2h-.1c-.5 0-1.2.1-1.9.1h-.6c0-.4.1-.7.1-.9zm3.8-5.1c.3.5.3.6.5 1.1.1.2.3.4.6.4-.1.1-.1.1-.4.1l-.9.1c-.1 0-.2 0-.2-.9 0-.2 0-.2.1-.2h.1c0-.3.1-.4.2-.6zm13.2 4.3c-1.1 0-2.6.6-3 .8l-.2.1c-1.1.4-1.2.5-1.4.5 0 0-.2 0-.3-.1-.2-.1-.3-.1-.4-.1-.3 0-.4.2-.4.5 0 .5.8 1.2 1.5 1.2.4 0 .5-.1 1.3-.6 1.4-.9 2.4-1.3 3.1-1.3.6 0 1.4.5 1.4 1.6 0 .9-.6 2.6-3 2.9-.4.1-.7.1-.7.4 0 .2.1.4.6.4 2.2 0 4.4-1.1 4.4-3.3.1-1.8-1.2-3-2.9-3zm15.4-3.6c-.9 0-3.6.8-5 1.1l-.2.1c-1.8.5-2 .6-2.5.6h-.1c-.2-.1-.5-.1-.6.1-.1.1-.1.3 0 .5.2.4.7.9 1.3.9.2 0 .4-.1.6-.2.3-.2 2.1-.9 3.1-1.2-1.5 1.6-1.7 3.8-1.7 5 0 2.5 1.6 3.1 3 3.1.9 0 1.8-.3 1.8-1 0-.4-.2-.7-.9-.7h-1.3c-.6 0-1.4 0-1.4-2.1 0-3.2 1.7-4.7 3.3-4.7.1 0 .3 0 .5.1.3 0 .5.1.6.1.3 0 .8-.3.8-.7 0-.7-.7-1-1.3-1zm12.6 2.1c-.2 0-.4.1-.4.3 0 .2.1.3.5.6.1.1.2.1.2.2.6.6.6 1.1.6 2.2 0 1 .6 1.1.9 1.1.3 0 .9-.1.9-1.1 0-1.1-.5-2.1-1.3-2.7-.5-.6-1.4-.6-1.4-.6zm-3.1 3.9c0-.2-.1-.4-.3-.4-.2 0-.4.2-.6.6-.4.6-.4.6-.5.6-.2 0-.8-.7-.8-2.1 0-.6.1-1.1.3-1.6l.1-.2c.1-.2.1-.3.1-.4 0-.5-.7-1.7-1.5-1.7-.2 0-.3.1-.3.3 0 .1 0 .2.1.4v.1c0 .1.1.5.1.7 0 .2 0 .6-.1 1.1 0 .5-.1 1-.1 1.2 0 2.7 1.8 4.2 2.8 4.2.4 0 .8-.3.8-.7 0-.1 0-.2-.1-.4v-.1c0-.1-.1-.3-.1-.5s0-.3.2-.9c-.1.1-.1-.1-.1-.2zm15.1-2c-.4 0-.8.1-1.2.2.3-.6 1.2-1.7 1.9-2.2.7-.5 1-.7 1-1.2 0-.8-1-1.2-1.6-1.2-.3 0-.5.1-1.3.4-.3.1-1.3.5-2 .5-.3 0-.6 0-.6.3 0 .2.5 1.2 1.3 1.2.3 0 .5-.1 1.1-.6.7-.6 1.1-.7 1.3-.8-.1.2-.3.5-.5.8-2 2.8-2.1 3-3 4-.9 1.1-1.1 1.4-1.1 1.9 0 .3.2.6.6.6.5 0 .7-.3.9-.8v-.1c.3-.5 1.3-2.1 2.9-2.1 1.1 0 2 .8 2 1.8s-.8 1.7-1.1 1.7c0 0-.1 0-.3-.3-.5-.6-1.1-.9-1.7-.9-.9 0-1.6.7-1.6 1.3 0 .8 1 1.6 2.5 1.6 1.7 0 3.6-1.2 3.6-3.1.2-1.6-1.3-3-3.1-3zm-1.6 4.4c0-.1.1-.2.3-.2.3 0 .6.4.6.6-.5 0-.9-.3-.9-.4zm18.8-6.2c-.2 0-.3.2-.3.3 0 .2.2.3.4.4h.1c.9.4.9 1.2.9 1.3 0 .2 0 .2-.5.6 0 0-.1 0-.1.1-.3.2-.5.3-.5.5s.2.3.5.3h.1s.2.1.3.2c.3.2.5.2.6.2.7 0 1-1.1 1-1.3 0-.8-.7-2.6-2.5-2.6zm-2.8.2h-.7c.1-.4.3-1.2.4-1.5.1-.3.1-.3.1-.4 0-.5-.7-1.1-1.7-1.1-.3 0-.5.1-.5.4 0 .1 0 .2.3.5s.3.7.3 1c0 .4-.1 1.2-.1 1.3-.3.1-1.8.4-2.1.4-.1 0-.4-.1-.6-.1-.2-.1-.2-.1-.3-.1-.2 0-.4.2-.4.4 0 .4.7 1.4 1.4 1.4.2 0 .4-.1.9-.3.2-.1.5-.2.6-.2 0 .1-.1.3-.1.3-.7 1.9-1.2 2.5-1.6 2.9-.8.9-1 1-1 1.4 0 .4.3.7.7.7 1.6 0 3.1-5 3.1-5.2.1-.4.1-.5.1-.5.1-.1.7-.2 1.1-.2.4 0 .7.1.7.7 0 .7-.3 1.9-.4 2.2-.4 1.4-.8 1.4-1 1.4-.1 0-.3 0-.6-.1l-.4-.1c-.2 0-.3.1-.3.3 0 .1 0 .1.2.4l.1.2c.1.4.3 1 1 1 .6 0 1.2-.5 1.5-.9.8-1 1.2-3.4 1.2-4.4.1-1.1-.6-1.8-1.9-1.8zm8.5 5c-.7 0-1.7.5-1.7 1.7 0 .9.6 1.7 1.7 1.7s1.7-.9 1.7-1.7c0-.9-.8-1.7-1.7-1.7zm0 2.6c-.5 0-.9-.4-.9-.9 0-.4.3-.8.8-.8.6 0 .9.5.9.9.1.5-.4.8-.8.8z"/></svg>