<svg xmlns="http://www.w3.org/2000/svg" width="640" height="480" viewBox="0 0 640 480"><path d="M479.747 33.825h2.4v.24c3.803.893 2.803 5.959 3.119 10.8.184 2.798.577 5.634.721 7.92.547 8.718.719 17.353 1.2 25.68.302 5.234 1.07 12.04 1.439 18 17.344-.2 33.245-3.857 50.641-4.8-.325 2.005.727 2.633.72 4.32-2.596 2.974-6.866 3.578-10.8 4.32-7.061 1.333-14.195 3.017-20.881 4.56-7.441 1.717-14.126 4.054-20.159 7.2.325 3.83-.58 6.996-.48 9.84.057 1.624.383 3.261.24 5.04-.07.88-.632 1.732-.72 2.64-.602 6.188.555 13.012 0 19.44 1.437.662 3.773-.984 5.04-.48v8.88c11.59.357 21.066-3.097 31.439-1.92 4.926-1.974 13.856-2.319 18.72-2.16.663 3.375-1.713 5.378-3.119 7.44-7.366.262-13.975 3.749-20.641 3.12-2.592 2.376-8.407 1.737-12.72 2.64-2.039.427-3.9 1.416-6.24 1.92-3.678.792-12.573 2.261-13.68 5.76-.575 1.817-.13 5.941 0 8.88.477 10.841-.142 24.087.72 33.84.861-.314 3.465-.752 5.04 0-.051 3.334-.545 6.34-.48 10.56 8.342 2.042 17.031-.49 26.16-1.2 9.994-.777 20.377-.132 28.32-2.64v.48c-1.2 1.206-1.053 5.757-2.88 4.8-.134 1.107 1.227.551.479 1.68-.676 1.714-4.97 1.737-7.92 2.16-4.676.67-8.026 1.723-11.04 2.16-3.637.527-7.323.566-11.04 1.2-10.363 1.768-21.399 4.622-28.319 9.121-.533 3.025 1.028 8.298-1.2 10.079 1.269-.21 1.312 1.464 1.439 2.641.422 3.854.335 11.723-.96 13.92 2.118.708.605 3.266.721 5.04.062.961.677 1.949.72 2.88l-.24 6.96c.072 2.383 0 4.991 0 7.44.001 17.89 1.296 35.762 0 53.04 1.188 3.572.691 8.558.721 13.199.027 4.409 1.031 9.616-.48 13.44.781 2.577.96 6.352.96 9.84 0 14.399.48 29.586.48 44.64-.001 11.269-.271 20.589.239 31.44-.675.445-1.714.526-1.92 1.44.899.019.726-1.035 1.92-.721-.049 5.078.026 12.923 0 19.44-10.479-.16-21.6.319-31.68-.24.521-10.728 1.035-22.373 1.44-34.08.647-18.742 1.66-37.662 2.399-56.16.38-9.507.233-18.969.96-28.08 2.938-36.817 2.322-77.271 4.561-114.72-4.947-3.274-12.658-2.29-18.24-2.64-8.394-.526-16.298.206-23.521 1.2-3.174.437-6.794 1.541-8.88 1.199-2.745-.449-4.526-3.938-4.56-6.479 1.545-.185 2.119.601 3.6.48 1.157-1.127 2.754-1.642 4.32-1.92 6.597-1.171 13.736-1.79 20.64-2.64 4.514-.556 9-1.719 13.44-2.4 4.403-.676 9.104-1.047 12.72-3.36 1.726-6.869.301-18.783 2.16-24-.895 1.326-.627-.343-.72-.96-.412-2.742.124-6.261.239-9.6.26-7.511.864-14.75 0-20.88-15.188-3.062-31.728.779-46.8 1.92-.992-2.048-3.296-4.062-3.12-6.48 1.145-.781 1.763.709 3.36.24.91-.209.494-1.746 1.68-1.68 15.553-3.058 32.815-3.788 45.84-8.88 1.681-16.355 1.869-30.845 2.641-46.08-14.57-3.071-31.365.789-45.601 1.92-.795-2.325-2.522-3.717-2.88-6.48 6.104-.707 12.438-2.248 18.721-3.36 8.933-1.582 18.579-2.61 25.92-5.28 2.307-.839 4.2-1.887 6-3.36 1.319-20.073 3.625-39.499 5.279-58.56-.355-.783 1.35-.693.48-1.2-.29 1-.767-.058-.24-.48.045-1.717 1.502-2.02 2.163-3.119zm-389.52 241.441c3.13.814 3.854-.68 6.48-1.2 12.396-2.457 28.783-3.22 40.08-6.721 1.999-14.524 1.665-32.597 1.68-47.76-11.779-2.622-27.107.354-39.84 1.68-1.047-1.833-2.741-3.019-2.88-5.76 1.957 1.051 3.238-.658 4.8-1.2 2.883-1.001 6.666-.791 10.08-1.44 10.165-1.933 20.575-2.694 28.56-6 .738-7.757 1.318-15.76 1.68-24.24.232-5.451.315-10.588.48-15.12-12.591-2.577-27.136.662-38.64 1.68-.979-1.741-2.112-3.328-2.64-5.52 6.418-.887 13.328-2.475 20.4-3.84 8.489-1.638 18.634-1.843 22.8-6.96 1.294-13.158 2.208-27.73 3.6-42 .386-3.961.339-11.25 3.84-11.52 4.607-.356 3.546 4.934 3.84 9.12 1.059 15.097 1.658 29.886 2.88 44.16 6.993.496 14.32-.851 21.6-1.68 7.286-.83 14.57-1.975 21.6-2.16-.206 1.566.549 2.171.72 3.36-2.326 3.019-6.684 3.379-10.56 4.08-12.017 2.172-24.818 5.147-33.84 10.08-.073 9.371-.824 20.955-.72 31.2 1.212.738 3.244-.859 4.32-.24.147 2.493-.302 5.583.24 7.68 8.958-.155 19.17-2.65 26.64-1.92 4.302-1.471 11.947-1.995 15.84-1.68.722 2.715-1.516 4.351-2.4 6.24-6.312.419-11.823 2.883-17.76 2.88-4.526 1.825-10.088 1.853-15.12 3.12-4.967 1.251-9.722 2.351-12.96 5.28.349 12.795.142 24.336.72 36.479.413.577 3.318-1.046 4.32.48-.049 2.991-.388 5.692-.24 8.88 5.75 1.518 12.167-.253 18.72-.72 9.152-.652 20.234-.723 27.6-2.641-.519 1.756-.931 2.923-1.44 3.841-.749 1.35-.771.479-.72 2.399-16.199 4.281-36.967 3.993-49.44 12-.895 2.991.667 7.104-1.2 8.88 1.391-.237 1.099 1.626 1.2 2.641.363 3.641.223 9.156-.72 11.279 1.375.42.666 2.254.72 3.12.463 7.36-.433 16.814.24 25.681.872 11.49.467 24.718 0 35.76.627 6.246 1.174 15.995.48 22.32 1.272 22.897.304 50.302 1.2 73.199-.046.845-2.25.776-1.44 1.681.033-.47 1.071-1.139 1.44-.48-.31 4.725.418 11.296-.24 16.32-8.8-.16-18.24.319-26.64-.24.375-30.283 3.151-62.043 3.84-92.16.099-4.322.504-9.771.72-14.88.112-2.653-.355-6.267.24-8.16v-.72c.341-18.638 1.031-39.829 2.16-59.04.469-7.976.006-15.978.96-23.76-4.059-2.811-9.434-1.962-15.12-2.4-9.545-.735-19.487.968-28.32 2.16-1.987-.732-2.98-2.459-3.84-4.32v-1.198zm223.92-147.121c15.532.642 31.361-3.579 46.56-4.08-.044 1.484.443 2.437.72 3.6-.156 1.364-1.782 1.257-2.16 2.4-15.798 3.923-32.344 5.843-45.359 12.72-.211 10.913-1.014 22.715-.96 33.84 1.319.379 3.298-.498 4.8-.72v8.4c9.19.926 17.622-2.977 27.12-2.16 1.551.133 1.354.245 3.12-.24 4.468-1.227 10.915-1.191 15.6-1.44.688 3.106-1.587 4.845-2.64 6.96-6.947.173-12.286 3.234-18.96 2.88-4.314 2.726-12.759 1.322-17.04 4.08-5.828.333-9.908 2.412-13.2 5.28.43 13.654.062 26.534.96 39.36.694-.524 2.629-.861 4.32-.24.068 3.349-.423 6.137-.24 9.6 5.446 2.225 13.174.093 20.88-.479 5.073-.377 10.204-.977 15.12-1.2 1.956-.089 3.915.383 5.76.24 2.886-.223 5.552-1.812 8.16-1.92-.767 1.342-1.472 5.948-2.4 4.8-.936.815 1.075.523.24 1.44-1.938 1.996-5.285 1.979-8.16 2.399-1.522.223-3.018.499-4.56.72-14.124 2.024-30.186 4.098-40.8 10.08-.414 2.036.399 5.511 0 7.681-.093.508-.14 1.965-1.2 1.68.202.837 1.099-.194 1.2.96-.076 4.134 1.283 11.214-.72 14.16.279.44 1.273.166.96 1.2.646 9.416-.372 19.661.24 29.76.726 11.968.554 26.14 0 38.4 1.334 3.322.355 8.451.48 13.199.098 3.735 1.509 7.686-.24 11.04.841 3.595.72 7.423.72 11.28 0 14.669-.062 31.752.24 44.64.133 5.666-.245 11.27.24 16.561.156 1.704.599 3.719.24 6-.01 1.109-1.515.725-1.68 1.68.352.566.636-.945 1.68-.479.152 4.806-.008 11.334 0 17.76h-28.8c1.506-33.36 2.292-73.06 4.32-105.36.241-3.833.701-7.728.72-11.279.014-2.631-.968-5.844.48-7.681-.924-2.083-.072-4.096 0-6.24.338-10.089-.056-20.881.72-31.439.424-5.775.942-11.567 1.2-17.28.098-2.161-.338-4.492-.24-6.72.09-2.05.739-4.107.72-6-.061-6.156-.047-14.151.48-21.601-2.755-3.238-7.422-1.906-12.96-2.159-.85-.039-1.255-.603-2.16-.721-2.386-.311-5.532 0-8.16 0-5.515 0-10.438.748-15.6 1.44-2.774.372-5.697 1.205-7.44.96-2.689-.378-4.297-3.57-4.32-6l2.88.479c2.535-1.896 7.013-1.816 11.28-2.399 3.415-.467 6.768-1.458 10.08-1.92 9.055-1.263 18.137-2.036 25.92-4.561 1.759-16.659 1.501-33.827 1.92-51.12-1.199-.867-2.983-1.159-4.56-1.2-12.468-.326-26.643 1.203-38.88 2.88-.633-2.327-2.582-3.338-2.88-6 .932-.635 2.009.291 3.36 0 .861.141.006-1.434.96-1.2 14.212-3.104 30.564-3.506 42.48-8.4.217-2.634-.138-6.949.96-7.92.495-11.266 1.017-22.771 1.44-34.08-3.954-1.656-8.621-1.344-13.2-1.2-9.535.299-18.877 1.956-28.32 2.64-1.178-1.702-2.352-3.408-2.88-5.76 11.728-1.633 23.187-4.812 34.56-6 4.342-1.418 9.326-2.194 12-5.28 1.276-19.284 3.036-38.084 5.28-56.4 1.187-2.114 5.243-1.686 6.24.72.645 1.554.144 3.721.24 6 .653 15.51 2.597 34.543 3.119 48.959z" fill-rule="evenodd" clip-rule="evenodd"/></svg>