<svg xmlns="http://www.w3.org/2000/svg" width="640" height="480" viewBox="0 0 640 480"><path d="M48.948 212.358l15-14.014s-4-58.602 144-76.437c148-17.834 282 22.931 282 22.931s19-35.67 36-31.849c17 3.822 36 7.645 37 16.562 1 8.918 0 30.574-8 30.574h-16s26 8.918 43 22.932l18 30.574s-9 15.288-30 26.753l-31 20.383 17 1.273s7 28.027-6 35.672c-13 7.643-42 19.109-50 6.369-8-12.738-13-26.752-13-26.752s-61 17.834-94 24.205c-33 6.369-93 11.465-93 11.465l-1 17.836 5 5.096-7 6.369 6 6.369s-14 2.549-18 1.275l-4-1.275h-34s-5-11.465-5-19.109v-16.561s-62 2.549-126-30.574l-67-70.067z" fill-rule="evenodd" clip-rule="evenodd" fill="#191D28"/></svg>