<svg xmlns="http://www.w3.org/2000/svg" width="640" height="480" viewBox="0 0 640 480"><path d="M384.548 38.797c-1.843 4.237-3.647 8.513-6 12.24-.457-1.789 1.073-3.944 1.92-6 1.004-2.438 2.072-4.223 3.36-6.24h.72zm-10.561 4.8c.279-.039.428.053.48.24-.708 2.012-1.758 3.682-2.64 5.52-1.27-2.07 1.737-3.806 2.16-5.76zm-3.359 5.76c1.133.988.022 3.417-1.44 3.36-.272-.987.931-2.372 1.44-3.36zm-1.681 3.84c.602.931-.205 2.507-1.199 2.64-.244-1.524.723-1.836 1.199-2.64zm-21.359 1.44c.278-.039.427.053.479.24-.338 1.742-1.725 2.435-2.399 3.84-.647-1.69 1.545-2.611 1.92-4.08zm-82.32 60.24c-1.42 1.62-5.179.901-6.72 2.4-5.664-.293-12.79 2.329-18.24 1.44.51-1.915 2.056-.471 3.12-.48 6.599-.054 14.834-2.585 21.36-3.36h.48zm-19.681 8.64c-.343.351-.353.93.48.72-.35.565-1.569-.012-1.92-.24-1.886 1.035-4.762.691-7.68.72-1.06.01-2.815.988-3.12-.48 3.225-.034 7.767-.815 12.24-.72zm-37.44 36.48c-2.245 1.702-6.666.006-9.84-.24-1.409-.109-2.646.307-3.36-.72-.677.25-2.246.459-2.88 0-.01-.411.179-.622.48-.72 4.526.492 11.216 1.61 15.6 1.68zm-21.839 5.76c1.239.811.801-.985 1.68-1.2 2.953-.311 5.483 1.074 8.16.24-2.843-1.178-5.741-.308-7.44-1.92 1.244-.196 1.553-1.327 1.68-2.64 6.077 1.14 12.928 2.457 19.92 1.92.487 1.204 5.042 1.599 5.76.24-1.119-1.921-5.899-.181-7.68-1.44 2.229-1.871 8.085 1.168 9.6-.96-.504-.883-2.012-1.097-2.88-1.2-3.728-.442-8.883-.034-12-.96-2.986-.887-6.294-.685-8.88-1.2 1.356-1.689 3.522-.038 5.28.24 5.012.791 11.542.867 16.8 1.2 1.485.094 2.77.824 4.08 0-.472-3.074-4.469-1.727-6.96-1.92-2.27-.176-4.555-.845-6.72-.48-2.509-1.411-7.512-.328-9.84-1.92 3.48-.005 7.389.378 11.04.72 4.868.456 10.81 2.102 15.36.48-.566-.203.661-.591.24-1.44-7.798-.03-15.264-1.098-23.04-2.16 4.662-.694 10.053.555 15.36 1.2 3.617.439 7.026-1.115 10.08.24-.091-1.292 1.24-1.16 1.2-2.4-3.068-.106-8.724-.484-12.72-.96-3.814-.455-7.908-.097-10.8-1.44 1.229-.335 3.726-.323 5.04.48 2.599.241 5.919-.011 9.6.24 4.719.322 11.481 2.562 12.48-1.68-3.912-.009-8.175-1.392-12-.96-.898.102-1.539.524-2.4.48-1.061-.054-2.139-.799-3.36-.96-1.906-.251-4.703.865-5.76-.96 8.316.796 16.862.985 25.68 1.2.964-1.467 2.219-1.156 2.64-3.12-5.282-.999-13.935.874-19.68 0-.749-.114-1.451-.803-2.16-.96-.734-.163-2.174.975-2.16-.48 8.37-.065 16.848 1.551 26.4.48.983-1.257 2.595-1.885 3.36-3.36-7.042.796-15.004.652-21.36 0-1.482-.152-3.496.586-4.32-.72 6.858-.366 19.991.682 27.84-.48 1.309-.959 3.819-1.904 3.6-3.6-5.227.275-8.789 1.049-14.88.48-.811.098.639.931-.48.72-2.851.211-5.691-.179-8.16-.48-1.015-.124-2.539.522-2.88-.72 6.077.085 13.451.228 19.44-.48l.96.72c3.974-2.258 12.16-.535 13.92-6-9.092 1.47-18.548 2.791-28.32 1.92 10.588-1.386 22.459-.897 32.4-3.12 1.595-2.18 4.333-2.75 6-5.28-5.87.004-12.279 3.167-18.48 2.16 6.279-.991 13.895-2.418 19.2-2.88-.092-.125-1.166-.355-.48-.48 1.191-.249 2.793-.086 3.6-.72v-4.32c-.799-.748-2.894.206-3.12 0 .711-1.208 2.948-.893 3.6-2.16.306-1.816-.066-2.547-.48-4.08-5.899 1.221-12.229 3.29-18.24 3.6.855-1.145 2.776-1.224 4.8-1.2l1.44-.72c4.623-.417 8.661-1.419 12.24-2.88v-4.8c-2.397.458-3.487 1.253-5.76 1.44 1.014-1.386 3.226-1.574 5.28-1.92.69-1.631 4.047-.594 4.8-2.16-1.718-2.442-2.749-5.571-4.56-7.92-1.011.549-1.813-.163-2.4-.72.736-.793 1.263.954 1.92.24.145-1.017 1.457-1.252 2.16-2.64.176-.348-.199-.892 0-1.44.731-2.018 2.664-3.9 2.64-5.28-.022-1.262-1.228-1.775-1.2-3.12.444-.356.359-1.241 1.2-1.2 1.687.11 1.476 1.911 3.12 2.4 2.7.803 6.463-.743 9.6-.24.492-.312.586-1.743 1.44-.96.178.978-.773.826-.48 1.92 2.263 3.577 3.541 8.139 6.96 10.56-.142 2.222 1.517 2.643 1.68 4.56 1.311.124 2.851-1.664 4.08-2.4.184-.11 1.039-.04 1.44-.24 2.415-1.2 6.047-4.375 9.6-6.96 3.649-2.654 7.139-5.378 9.12-7.44.511-.532 2.641-3.167 2.64-3.12.009-.736-2.95-2.523-3.36-2.88-6.478 6.242-13.849 11.591-21.6 16.56.387 1.296 1.553 3.082 1.2 4.32-2.837.043-2.024-2.406-3.84-3.6 2.031-.849 3.224-2.537 5.52-3.12 1.009-1.951 3.354-2.566 5.28-3.6l.96-1.44c7.423-4.337 12.742-10.777 18.96-16.32-.984 2.536-3.514 3.526-4.561 6 .746 1.014 1.981 1.539 2.881 2.4 3.895-3.526 7.676-7.212 11.039-11.52 1.048-1.341 1.609-3.494 3.601-3.84-2.533 3.067-4.527 6.673-7.68 9.12-.893 3.348-4.307 4.174-5.521 7.2 1.364.476 1.73 1.949 3.12 2.4 6.457-5.223 11.181-13.459 16.8-18.72-4.397 7.363-10.647 12.872-15.6 19.68.48 1.12 1.966 1.233 2.64 2.16 10.418-7.982 18.653-18.147 26.88-28.32.9-.238.523 1.179 1.2.48 2.042-1.078 2.005-4.235 4.32-5.04-5.2 9.68-12.261 17.5-18.24 26.4 1.9-.58 3.577-1.383 5.28-2.16 6.597-8.603 12.31-18.091 17.76-27.84.965 2.364-1.446 3.639-2.4 5.28-2.129 3.662-3.479 8.143-6.72 10.8-.868 4.492-5.207 5.513-5.52 10.56 1.177-.619 1.615-.73 3.359-.96 3.349-4.492 5.791-9.889 9.36-14.16-1.456 4.705-4.738 7.583-6.48 12 1.972.291 2.726-.635 3.84-1.2 5.076-8.444 9.915-17.126 14.641-25.92-.387 4.094-3.306 5.654-3.84 9.6-1.989 2.103-3.041 5.028-4.561 7.68-1.457 2.542-3.698 4.875-4.08 7.68 3.157.788 3.594-2.493 4.561-4.08 2.093-3.434 4.506-7.396 6.24-10.08-1.172 5.069-4.635 7.845-6 12.72 3.436.237 2.725-3.675 5.039-4.56.968-2.153 1.456-4.784 3.36-6 2.195-5.405 4.87-11.609 7.68-15.6-.031 1.488-.695 2.344-1.439 3.12.185.905-.293 1.147-.24 1.92-2.021 3.182-3.255 6.954-5.04 10.32-1.769 3.334-4.35 6.375-4.8 10.08 2.882-2.371 4.259-6.127 5.76-9.6.782-1.81 1.459-3.572 2.4-5.28.862-1.564 2.226-2.904 3.12-4.56 1.281-2.375 1.44-5.453 3.359-7.44-.62 4.869-3.221 9.036-5.279 13.2-2.078 4.202-4.43 8.203-6.24 12.48 2.804-.316 2.115-4.125 4.32-5.04 2.674-7.646 6.767-13.873 9.6-21.36h.479v.24c.214.106.43.21.48.48-3.541 7.179-6.301 15.14-10.08 22.08 3.365-1.675 3.596-8.563 6.72-11.28 1.202-4.398 2.948-8.252 5.28-11.52h.48v.24c2.135.398 3.401.24 5.04.96-.577 4.545-2.546 8.265-4.32 11.76-1.222 2.404-2.061 5.354-3.601 8.16-1.348 2.458-3.793 5.749-3.84 7.92-.041 1.916 1.275 3.775.24 5.76-.016 1.073 1.232-.489 1.2.72-.454 1.207-1.471-1.075-2.16.24-1.049 1.41 1.005 2.047.48 2.88-.814.064-.823-1.309-1.681-.48-1.036 1.043-.801 3.359-2.16 4.08-1.122 9.197-3.646 16.994-5.04 25.92-2.488 7.233-4.314 16.719-6 24.96-1.812 8.859-7.889 10.922-14.88 14.4-2.373 1.181-4.495 2.89-6.72 4.08-2.331 1.248-4.617 2.205-6.72 3.6 1.077 2.369 2.188 4.007.96 6.96-3.033.371-2.968 4.14-4.08 5.76-1.154.354-.221-1.379-1.2-1.2-1.266 4.305.58 8.581.72 12.96 1.377.719 2.201 2.272 3.36 1.92 1.019 1.963.138 3.784.479 5.76.504 2.91 4.464 5.012 2.641 7.68-3.16-.04-1.589-4.811-4.32-5.28-1.333 2.138-.973 5.333.72 6.72 1.988 1.123 5.245-1.336 4.32.48 1.203-.077 1.013-1.547 2.4-1.44v2.88c2.279.201 1.903 3.057 2.399 5.04-.712.568-1.811.75-1.439 2.4-1.979.182-2.479 1.841-3.84 2.64 6.121 4.106 13.801 10.858 15.6 19.2.417 1.935 1.047 3.827 1.2 5.52.17 1.872-1.097 6.638-1.92 8.88-.436 1.184-1.348 3.14-1.92 4.08-1.086 1.78-3.471 1.942-3.601 5.04 4.728.507 8.678-3.758 13.44-4.8.723-.478 1.026-2.383 1.92-1.92.943.402 1.718 2.03 1.439 2.88-7.04.88-11.122 4.717-17.04 6.72-1.082 9.975 2.72 18.973 2.641 29.52-.255.896.9.38.72 1.2-.074 7.638 2.048 13.395 1.92 21.12 1.353 1.712.735 4.191.72 6.96.422.882.439-.201.721.24.383 6.736 1.448 12.791 1.68 19.68 1.525.475 3.002.998 5.28.721-.126-1.201.831-1.087.96-1.921.416 1.041 1.814 1.119 2.88 0-1.323.193-.771-.368-.72-1.199 4.375 3.017 9.187-2.2 13.439-3.12.613.587.372 2.028.721 2.88-5.656.823-8.951 4.009-14.881 4.56-1.006 1.007-3.071 1.921-5.04 1.2.447 2.287-2.135 1.545-2.88 2.64-.38 1.74 1.088 1.633 1.2 2.881-.635 4.246 1.861 9.063.48 13.199 1.696 2.663 1.051 8.506 1.92 12.721 1.223 5.929 1.544 12.833 2.16 19.439.303 3.252 1.358 6.836 1.68 9.601.112.971-.203 2.087 0 3.12.131.667.632 1.265.72 1.92.07.527-.265 1.163-.24 1.68.192 4.059 1.447 8.427 1.681 12.24.099 1.628-.441 3.165.239 4.56h-23.52c-1.604-.399-4.877-.399-6.48 0h-3.6c-5.92-.399-13.52-.399-19.439 0h-21.84c.367-.833 1.204-1.195 2.16-1.439-.043-.677-1.141-.3-.96-1.2 2.604-5.127 4.364-13.663 3.36-20.16.563-1.529 1.275-3.149.48-4.8.069-4.668.96-9.857.72-16.08.298-.662 1.16-.761 1.68-1.2-.171-.629-1.37-.23-1.44-.96-.511-4.954.84-9.326.48-12.96.867-.228.334.945.48 1.439 2.783-1.284 1.614-7.878 1.92-11.52.159-1.886-.003-3.315 0-5.04.006-3.918 1.894-7.912.48-11.04 1.58-7.689.747-16.07 1.92-23.28-4.232 1.214-10.485 2.471-13.92 5.28-1.092-.564-.432-1.937-1.68-2.64 6.058-.094 10.164-3.167 15.6-4.561 1.286-14.1.058-30.965 1.92-44.88.436-3.258.195-6.957.72-9.84.129-.71.571-1.837.48-2.88-1.091-.749-2.307-1.373-2.16-3.36-4.963-3.601-6.874-11.706-7.2-18.48 2.254-1.924.123-4.643 0-7.2-.307-6.401 2.62-10.306 8.88-11.76 1.15.084-.513.719-.48 1.2 1.403-.882 1.382-1.859 3.36-1.92-.28-2.046 1.505-3.656 2.4-5.28 1.281.533 1.959-.047 2.641-.72l-.48-2.16c2.251-8.103.981-21.535-1.92-28.32l-1.92.72c-.185-.904.292-1.147.24-1.92-.101-.539-1.273-.006-1.44-.48l.48-2.16c-2.325.292-6.437 2.394-9.36 4.08-.934.539-1.698.601-2.88 1.2-2.184 1.107-4.069 2.925-6.24 4.08-10.693 5.688-22.164 10.88-32.16 17.28-3.591.388-9.947 3.674-10.56-1.68-1.977-.502-3.209-1.75-5.76-1.68-.591-.609-1.646-.754-2.16-1.44-10.457-2.823-19.641-6.919-30-9.84-.403-1.037-2.192-.688-2.4-1.92l-1.68.48c-.17-2.55-3.141-2.299-3.84-4.32-8.402-1.095-19.18.809-25.44-2.88.003-1.361.003-2.721.003-4.081zm170.88-109.44c-5.159 6.92-11.094 13.066-16.8 19.44-1.588.812-2.789 2.011-3.6 3.6 1.177-.103 1.569-.99 3.119-.72 7.953-6.127 13.047-15.114 19.2-23.04-.027-.293-.071-.568-.479-.48-.232.648-.603 1.158-1.44 1.2zm11.04 12.48c-.31 3.275-2.588 4.273-4.08 6.48-3.32 4.911-6.359 9.488-9.84 13.92-2.088 1.912-3.991 4.009-5.28 6.72.32.241.725.396.96.72 5.626-4.535 9.214-11.106 14.16-16.32.743-2.267 2.521-4.169 3.84-6.24 1.226-1.924 3.341-4.526 2.88-6.48-1.17.111-1.651.909-2.64 1.2zm-2.161.72c-.519-.541-.818.199-1.68 0-1.97 2.19-3.815 4.505-5.04 7.44-3.807 3.553-5.882 8.838-10.32 11.76-.495 2-3.426 2.965-2.399 5.04 1.716.187 1.798-1.583 2.64-2.64 2.113-2.651 5.196-4.565 6.24-8.16 1.635-.765 1.898-2.901 3.359-3.84l1.2.48c2.526-3.154 4.876-6.484 6.96-10.08.013-.413-.185-.615-.479-.72-.058.343-.396.405-.481.72zm4.8 1.44c-.61 4.19-3.902 5.698-5.039 9.36-4.068 5.692-9.46 11.34-12.48 17.28 7.383-7.737 13.189-17.051 19.44-25.92-.312-1.236.692-2.011.239-2.64-.053-.187-.201-.279-.479-.24-.734.547-.873 1.687-1.681 2.16zm-13.679 1.68c-3.245 5.795-8.044 10.037-11.52 15.6.598.441 1.003 1.077 1.68 1.44 5.155-5.645 10.282-11.317 13.92-18.48-1.731.11-2.859.822-4.08 1.44zm-2.64 1.2c-7.005 2.116-9.161 9.079-13.92 13.44.152 1.207.985 1.734 1.92 2.16 4.866-4.414 8.742-9.817 12.479-15.36-.052-.187-.201-.279-.479-.24zm-31.681 3.12c-2.126 2.674-5.034 4.566-7.2 7.2-3.401 1.944-7.97 5.772-12 8.4-2.192 1.43-5.329 2.833-3.12 5.76 2.906-.005 5.469-2.396 8.16-4.08 2.565-1.606 5.701-3.005 7.68-4.8 1.824-1.654 4.51-5.979 6.24-5.28 1.164-1.876 3.103-2.977 4.319-4.8-1.225-.933-2.349-1.969-4.079-2.4zm14.16 7.68c.733.787 1.269 1.772 2.4 2.16 2.708-3.052 5.639-5.881 7.92-9.36-5.178.662-7.261 4.418-10.32 7.2zm-9.599-4.32c-2.176 3.104-5.677 4.883-7.92 7.92 1.971.063 3.35-1.707 5.04-2.4.412-.169 1.014.136 1.439 0 1.805-.575 3.506-2.494 4.32-3.84-.805-.714-1.749-1.29-2.879-1.68zm2.88 5.52c-6.175 3.345-10.062 8.978-16.32 12.24-.004-.351 1.012-.761 0-.72-1.962 3.478-5.81 5.07-9.36 6.96-.93 1.323-.543 3.998.96 4.32 10.083-5.278 17.755-12.965 26.161-19.92-.13-1.311-1.228-1.654-1.441-2.88zm4.32 1.68c.427.853.798 1.762 1.68 2.16.149-.651 1.003-.597.96-1.44-.891-.39-1.308-1.253-2.16-1.68-.004.477-.655.305-.48.96zm39.359 4.08c-3.96 2.625-5.146 9.43-6 15.12-1.028 6.864 2.926 10.884 3.36 16.32 1.634-.783.11-4.06 1.92-5.04.527-4.432 2.122-7.797 2.88-12-1.239-4.393 1.308-8.85 2.641-12.24-.843-2.972 1.354-4.633 1.68-7.2-3.53-.215-5.607 3.172-6.481 5.04zm-68.159 18.24c-.292.938.626 2.728 1.2 3.6 4.994-2.526 8.726-6.313 13.68-8.88.96-1.28 1.934-2.546 3.84-2.88 2.409-3.991 6.804-5.996 9.359-9.84-.859-.5-.812-1.908-1.92-2.16-8.029 7.411-16.613 14.266-26.159 20.16zm-3.6-9.12c.371 1.149.468 2.572 1.2 3.36 1.495.295 1.183-1.217 2.16-1.44 5.857-2.143 8.883-7.117 14.4-9.6.565-1.195 1.781-1.739 2.4-2.88-7.74 2.501-13.203 7.277-20.16 10.56zm34.799-9.84c-.013 1.373.481 2.239.96 3.12 3.618-.286 2.15-5.723-.96-3.12zm2.161 4.8c1.507-.413 2.35-1.491 2.641-3.12h-.721c-.087 1.594-1.828 1.533-1.92 3.12zm-5.281 4.8c-1.389 1.284-3.188 2.466-4.8 3.36-.051-.29-.267-.148-.479 0-1.701 3.339-5.754 4.327-7.92 7.2 3.366 1.931 4.27-.409 6.239-2.16 1.084-.964 2.5-1.428 3.12-2.16.312-.367.181-1.283.48-1.68.5-.662 1.624-.895 2.16-1.44 1.793-1.826 3.058-3.809 3.84-5.28-1.374-.403-1.82 1.403-2.64 2.16zm2.16-3.6c0-1.6-.827-2.373-1.92-2.88-2.834 2.126-5.417 4.503-7.68 7.2 1.078.155.401.821.96 1.68-.668 1.175-3.003 1.952-2.64 3.36 4.381-2.499 7.145-6.615 11.28-9.36zm4.561 2.16c.42.46.282 1.478 1.2 1.44 1.323-1.316 2.685-2.595 3.359-4.56-1.571-1.603-3.353 2.04-4.559 3.12zm-51.84 2.4c2.634-.314 2.167 2.474 4.32 2.64 1.804-1.396 3.687-2.713 6-3.6.124-1.963-.693-2.986-1.68-3.84-2.855 1.626-6.31 2.651-8.64 4.8zm54.96 2.4c1.229-1.971 3.67-2.73 4.319-5.28-.975-2.467-7.469 3.915-4.319 5.28zm-17.28 8.4c.522.517 1.113.967 1.92 1.2 3.841-3.279 8.078-6.161 11.04-10.32-.782-.588-.707-1.087-.24-1.92-5.542 2.379-8.188 7.653-12.72 11.04zm-54.72-9.84c.201 1.696-.566 3.518-.24 4.56 1.885-.354 3.831-.649 4.8-1.92-.909-1.508-2.299-4.654-4.56-2.64zm35.76 12c.035 1.485.631 2.409 1.44 3.12 5.797-4.762 11.334-9.785 16.56-15.12-.244-.45-1.256-.026-.24 0-6.329 3.592-11.674 8.167-17.76 12zm-7.441-12c-2.958.641-4.796 2.403-6.72 4.08.198 1.242.743 2.138 1.92 2.4 1.908-1.212 4.471-1.769 6-3.36-.162-1.277-.802-2.077-1.2-3.12zm61.441 4.8c.454.426 1.585.175 2.399.24.669-1.171 1.518-2.162 1.44-4.08-.307-.013-.332-.308-.72-.24-.799 1.601-2.224 2.576-3.119 4.08zm-85.921-.96c-1.271.889-2.9 1.419-4.56 1.92.654 1.86-.835 3.171.24 4.8 1.947-.292 3.75-.73 5.04-1.68 4.456-.104 5.679-3.441 9.84-3.84.13-1.769-2.263-2.495-.48-3.84-3.302.784-5.979 4.187-10.08 2.64zm64.081-1.2c-2.057 2.984-4.913 5.167-6.721 8.4 3.113-2.006 5.85-4.391 8.4-6.96.637-.347-.881-.536-.48-1.44h-1.199zm-44.16 5.28c.529.99.995 2.045 1.68 2.88 2.596-.364 3.696-2.224 6-2.88-.082-1.598-.708-2.651-1.44-3.6-2.604.676-4.693 1.867-6.24 3.6zm-8.16-.48c-2.715 1.845-5.873 3.247-8.16 5.52 2.375.135 3.277-1.203 5.52-1.2-2.92 2.28-7.333 3.067-11.04 4.56-.93 1.095-.176 3.148.96 3.6 3.57-.766 7.905-2.173 11.28-3.6 2.859-1.209 4.446-1.532 5.52-2.88-.245-1.276-1.382-1.658-1.44-3.12-1.838.005-3.269 1.687-4.56 1.44.401-1.359 2.155-1.365 3.6-1.68.429-1.523-.67-1.962-1.68-2.64zm10.56 4.56c.664 1.016 1.241 2.119 2.16 2.88 1.604-.717 3.102-1.539 4.8-2.16.259-1.939-1.106-2.254-.96-4.08-2.452.668-4.246 1.994-6 3.36zm62.4-1.92c1.799.602 2.528 2.271 4.8 2.4.631-1.421-1.019-2.45-1.2-3.84-1.658.022-3.735-.375-3.6 1.44zm-89.52 1.68v3.36c3.56-1.641 6.625-3.775 9.36-6.24-3.439.642-6.139 2.021-9.36 2.88zm42 6.24c2.205-1.796 4.572-3.428 6.72-5.28-.476-.884-1.442-1.278-2.16-1.92-1.499.272-3.477 2.715-5.28 4.08-1.394 1.055-3.927 1.887-2.4 3.84 1.498.16 3.044-2.352 3.12-.72zm9.84-5.04c-.725.476-1.158 1.242-1.681 1.92-2.149 1.631-5.607 3.659-6.24 6 3.269-2.251 6.91-4.13 9.6-6.96-.187-.692-1.161-.599-1.679-.96zm34.56 3.12c-1.659-.985-1.368.968-3.6.24.205.765-.209.911-.48 1.2-.706-.334-.908-1.172-1.92-1.2-1.607 1.912-3.807 3.233-5.52 5.04.688 2.533-1.36 3.869-.96 6 .377 2.01 3.335 2.711 3.12 5.28 1.762.798 2.486 2.633 3.119 4.56 1.278.242 1.984 1.056 2.16 2.4 6.45.356 9.512-4.718 14.641-6.48.907-1.972 3.257-2.255 3.6-4.32.467-2.814-3.421-8.831-3.6-11.28-2.993-1.407-5.083-3.717-8.641-4.56-.52 1.582-1.098 1.733-1.919 3.12zm-56.88-.72c-.151 1.912.911 2.609 1.68 3.6 2.399-1.423 5.724-2.393 3.36-5.52-2.043.278-2.741 1.9-5.04 1.92zm-8.4-.72c-5.074 2.613-11.876 4.483-17.04 6.24-.1 1.568.594 1.65.72 3.36 5.874-.526 10.032-4.047 15.36-4.32-4.358 2.202-9.414 3.706-14.4 5.28-.036 5.226 4.675 2.748 8.88 1.2 3.119-1.148 5.647-2.724 7.68-3.6 1.533-.661 2.531.054 3.12-1.2-.12-1.399-1.097-1.943-1.44-3.12-1.185.162-2.397 1.352-3.36.96.556-.884 1.891-.99 2.64-1.68-.695-1.065-.794-2.726-2.16-3.12zm30.959 6.48c2.748-.613 5.611-3.188 7.681-5.28-.051-.27-.267-.374-.48-.48-2.241 2.08-5.002 3.639-7.201 5.76zm-6.959.24c-1.581 1.059-3.922 1.357-4.32 3.6.284.116.544.256.72.48 3.983-2.737 8.214-5.226 11.28-8.88-3.023 1.138-5.252 3.068-7.68 4.8zm-9.12-2.4c-1.246.754-2.348 1.651-3.12 2.88 1.618 1.364 2.016-1.323 3.84-1.2.198-.678-.338-.622-.24-1.2-.754-.399-.98.893-1.2.24.345-.134.585-.374.72-.72zm-41.76 3.6c1.254-.105 3.163.443 3.12-.96-.766-1.601-2.547.182-3.12.96zm39.599.48v1.2c1.735.785 3.42-.328 4.08-1.92-1.297-1.247-2.483.775-4.08.72zm-34.799 3.12c1.145-.455 2.694-.506 3.36-1.44-.377-4.149-4.65-2.135-3.36 1.44zm27.12-3.84c-5.886 2.674-12.135 4.985-18.72 6.96.421.939.089 2.631 1.2 2.88 6.001-1.039 12.875-3.285 16.56-7.44h1.68c.103-1.143-.286-1.794-.72-2.4zm-29.281.96c-4.019.31-9.234 1.479-10.56 5.28 3.307.013 7.116-1.079 10.56-2.16v-3.12zm38.881 3.6c.33 1.354 1.893 1.769 3.12.96-.221-.819-.101-1.979-.72-2.4-.525.756-1.922.639-2.4 1.44zm-7.2-.96h-.72c-2.505.833-3.901 2.406-5.76 3.6-2.733 1.755-6.311 2.33-7.68 5.04 6.051-1.069 10.203-4.037 15.36-6-.164-1.116-.935-1.625-1.2-2.64zm-29.761 4.8c1.884-.437 3.89-.75 5.28-1.68-.432-.928-.868-1.852-1.2-2.88-2.668.071-5.462 1.231-4.08 4.56zm-20.399 3.12c5.869-.136 13.168-.908 18-2.88v-3.12c-6.365 1.636-15.077.924-18 6zm46.56.48c.581-.394 1.166-.611 1.92-.24.885-1.435 2.57-2.07 4.56-2.4.103-1.063-.4-1.52-1.2-1.68-1.486 1.556-4.632 2.726-5.28 4.32zm-26.641-2.4c-.346.773-.227 2.013-.24 3.12 3.068-.132 5.258-1.142 7.68-1.92-.304-3.829-4.912-1.764-7.44-1.2zm-22.799 3.6c-1.483.997-3.417 1.543-4.08 3.36 1.866.296 5.578-.773 7.92 0 .041-.359-.085-.886.24-.96 5.784-.136 10.91-.93 15.84-1.92.757-.523.406-2.154.48-3.36-7.705.519-13.14 3.038-20.4 2.88zm34.08-.72c1.077-.363 1.653-1.227 2.16-2.16-2.01-.588-3.32 1.05-2.16 2.16zm6.48 1.44c2.396-.063 3.288-1.057 4.8-2.4-1.998.403-4.571.23-4.8 2.4zm5.04 2.88c1.846-.38 7.043-4.29 8.64-5.04-4.605.391-7.232 3.919-11.52 3.84.243 1.339 1.938 1.394 2.88 1.2zm-17.761-.72c1.344-.336 1.761-1.599 3.36-1.68.576-1.003-.099-1.688-.48-2.4-2.522.918-5.601 1.279-8.4 1.92-.346.798-.692 1.966-.24 2.88.627-.067 1.201-.081.96.72 1.272-.561 4.038-2.679 4.8-1.44zm-7.919-1.44c-7.957.741-17.179 3.382-26.16 3.12-1.02.821-1.996 1.684-2.64 2.88 2.133-.208 3.934-.781 5.52.24 6.91-1.89 16.361-1.238 23.04-3.36.319-.72.243-1.836.24-2.88zm16.8 1.92c.196-.917-.511-.929-.96-1.2.135.585.205 1.235.96 1.2zm-12 2.4c-.929.508-2.246.197-2.16 1.68 3.958-.522 7.525-1.435 10.56-2.88.234-1.194-.491-1.429-.72-2.16-3.141.304-5.294 2.055-7.68 3.36zm76.56 1.92c.867-.252 1.329-.911 1.92-1.44-.711-.729-.686-2.194-1.92-2.4v3.84zm-64.32-2.4v.96c1.066.636 2.622-.018 3.12-.72-.655-1.037-1.996-.588-3.12-.24zm-21.36.96c-3.635-.34-6.107 1.713-9.6.72-5.742 1.999-13.894.154-18.96 2.88 1.199.106-.529.506-.24 1.2 1.773.067 3.644.037 4.8.72-1.197.102.095.515.24.72-.516.52-2.941-.688-3.36.48 4.333 2.607 13.183 1.28 17.04-1.44-3.13.049-6.997.532-10.32.48-.598-.009-1.903.819-1.92-.48 3.837-1.169 8.093-.444 12.24-1.2-.293-.027-.568-.072-.48-.48 3.707-.614 9.195.556 10.8-2.16 1.64-.12 2.886-.635 3.84-1.44-.695-1.609-3.08-.743-4.08 0zm17.28 1.68c.73.009 1.58.139 1.44-.72h-1.2c.01.331-.114.527-.24.72zm-12 2.88l2.4-.24c.694-2.161 3.691-1.05 4.32-2.88-2.806-.121-7.61.451-6.72 3.12zm-2.64-1.68c-2.966 1.354-7.61 1.03-8.88 4.08 3.726.211 6.196-1.586 9.12-1.44.642-.817-.131-1.823-.24-2.64zm12.72.96c-3.901 1.189-8.635.918-10.8 3.84 5.799.193 11.12-2.155 14.88-4.8-1.581-.472-2.735.55-4.08.96zm39.12 0c1.013 2.021 1.97 6.409 4.56 5.28-1.828-1.052-2.297-3.463-3.12-5.52-.592-.031-1.157-.036-1.44.24zm-3.12 4.8c.675.373 2.041 1.308 2.88.72-1.034-.566-.49-2.709-1.92-2.88.169 1.21-.885 1.195-.96 2.16zm-66.96.72c.519 3.116 4.123.35 6.48 1.2 1.384-1.05 3.62-1.131 5.04-2.64-3.469-.096-8.156.636-11.52 1.44zm-20.161 1.92c2.038.393 7.113 1.067 8.16-.96-1.886-.656-8.392-1.234-8.16.96zm25.681.72c.499 1.421 4.07 1.506 5.04.96-.422-.138-1.41.29-1.44-.24 3.11-.33 6.215-.666 7.92-2.4-4.139-.158-7.825.72-11.52 1.68zm49.44-1.68c-9.727 4.753-19.9 9.06-31.92 11.52-1.666 2.734-3.326 5.474-3.12 10.08 1.691.504 2.131 1.896 3.12 2.88 1.346 1.34 5.847 5.319 7.92 5.04.884-.119 1.613-1.146 2.64-1.68.636-.331 1.615-.339 2.4-.72 1.268-.616 2.065-1.93 2.88-2.16 2.184-.617 1.782-.781 3.12-1.68 1.153-.775 2.738-.761 4.08-1.44 1.843-.933 3.54-2.966 5.28-3.84l2.16-.48 1.68-1.44c.855-.447 1.883-.315 2.64-.72 1.008-.539 1.824-1.606 2.88-2.16 1.197-.628 2.352-.993 3.36-1.68.751-4.37-2.134-6.059-2.88-9.6-1.641-1.08-4.145-1.295-6.24-1.92zm-63.36 2.4c-4.106.193-12.797-.754-14.88 1.2 7.005.486 14.736 1.625 19.68-1.2-1.284-.804-2.814-.093-4.8 0zm20.88 1.68c1.638.231 3.98.603 4.32-1.44-1.816.105-3.62.221-4.32 1.44zm52.319-.72c1.133 1.686 1.742 5.112 4.56 4.32-.058-2.182-1.787-2.693-2.16-4.56-1.079.338-2.133-.726-2.4.24zm-90.719 2.64c2.807 1.465 6.643.751 9.12-.48-3.746.096-6.185-1.557-9.12.48zm16.32.24c2.555-.325 5.983.223 7.92-.72-2.237-.497-6.519-.889-7.92.72zm-3.36 1.92c-2.776.256-6.314-1.045-8.16.48 3.395.233 6.767.378 9.84-.24-.268-.544-1.765-1.099-2.16-.72.269.051.373.267.48.48zm-36.241 2.64c1.062-.169 1.683.613 2.16-.24-.578.078-2.743-.204-2.16.24zm65.281 6.24c.748-.244.59-2.295.24-2.88h-.96c-.587.95.103 2.368.72 2.88zm-12.48-1.2c-4.218 1.109-11.161-.251-14.4 2.4-.449-.191-.879-.401-1.44-.48-.329.547.619.902 0 .96-2.262.618-4.974.786-6.48 2.16-.656-1.216-1.973.201-3.12 0 1.789 3.251 7.62 2.46 10.32 4.8 7.954 1.65 14.13 5.24 22.32 7.2l.96.96c1.975-.412 1.081-2.44 2.16-4.56.222-.435 1.06-.835 1.2-1.2.607-1.579 1.275-4.686 1.2-5.28-.305-2.414-3.295-3.481-5.28-4.8-.648.072-.431 1.01-.96 1.2-2.876-.265-4.196-3.675-6.96-4.8-.257.897.595.685.48 1.44zm14.159 9.12c-.887 4.073-2.304 7.616-3.36 11.52 4.638.309 8.056-2.658 11.28-4.56-2.103-2.502-4.502-4.419-6-6.96h-1.92zm44.881 38.88c1.919-2.801 3.273-6.167 6-8.16-.027-.293-.072-.568-.48-.48-3.116 1.604-6.282 3.158-5.52 8.64z" fill-rule="evenodd" clip-rule="evenodd"/></svg>